<?xml version="1.0" encoding="UTF-8" standalone="no"?>
<!DOCTYPE svg PUBLIC "-//W3C//DTD SVG 1.1//EN" "http://www.w3.org/Graphics/SVG/1.1/DTD/svg11.dtd">
<svg width="100%" height="100%" viewBox="0 0 823 214" version="1.1" xmlns="http://www.w3.org/2000/svg" xmlns:xlink="http://www.w3.org/1999/xlink" xml:space="preserve" xmlns:serif="http://www.serif.com/" style="fill-rule:evenodd;clip-rule:evenodd;stroke-miterlimit:10;">
    <g id="Tavola-da-disegno1" serif:id="Tavola da disegno1" transform="matrix(0.974685,0,0,0.770199,25.3665,-64.1502)">
        <rect x="-26.025" y="83.29" width="843.538" height="277.295" style="fill:none;"/>
        <g transform="matrix(1.36796,0,0,1.73115,-20.9303,341.786)">
            <path d="M0,-84.095C31.963,-93.764 64.543,-90.936 96.652,-83.949C132.401,-76.169 167.342,-66.373 201.555,-53.374C265.005,-29.267 328.182,-2.132 396.154,5.899C435.624,10.562 474.881,9.022 513.811,1.296C532.738,-2.459 551.448,-7.36 569.889,-13.025C583.738,-17.279 597.692,-21.965 610.666,-28.477C612.594,-29.445 610.905,-32.291 608.985,-31.356C586.445,-20.374 561.833,-13.248 537.578,-7.216C509.483,-0.229 480.534,5.162 451.491,4.915C417.11,4.622 383.782,0.196 350.4,-7.92C316.596,-16.138 283.851,-27.947 251.381,-40.314C231.036,-48.064 210.796,-56.088 190.407,-63.722C168.198,-72.038 145.223,-78.158 122.121,-83.419C101.296,-88.161 80.53,-92.7 59.145,-93.715C39.27,-94.657 18.076,-93.833 -0.707,-86.658C-2.276,-86.059 -1.671,-83.589 0,-84.095" style="fill:rgb(151,191,13);fill-rule:nonzero;"/>
        </g>
        <g transform="matrix(1.36796,0,0,1.73115,157.157,144.445)">
            <path d="M0,-1.629C0.491,-2.21 1.26,-3.451 2.095,-3.528C2.619,-3.576 3.537,-2.974 3.942,-2.687C4.926,-1.987 4.533,-1.347 3.839,-0.488C3.22,0.277 2.504,0.967 1.838,1.691C1.271,2.307 2.19,3.231 2.759,2.612C4.164,1.086 7.453,-1.554 4.962,-3.544C4.225,-4.133 3.062,-4.824 2.079,-4.84C0.801,-4.86 -0.195,-3.408 -0.921,-2.55C-1.459,-1.914 -0.543,-0.988 0,-1.629" style="fill-rule:nonzero;"/>
        </g>
        <g transform="matrix(-1.31919,-0.458121,-0.362008,1.66944,149.923,194.969)">
            <path d="M-1.628,-12.403C-1.117,-8.193 -0.621,-4.026 -0.325,0.209C-0.266,1.047 -1.569,1.043 -1.628,0.21C-1.924,-4.021 -2.421,-8.194 -2.931,-12.402C-3.032,-13.234 -1.728,-13.226 -1.628,-12.403" style="fill-rule:nonzero;"/>
        </g>
        <g transform="matrix(1.36796,0,0,1.73115,73.1991,173.442)">
            <path d="M0,-31.763C4.237,-31.665 5.412,-31.696 12.417,-31.073C17.711,-30.602 23.045,-29.631 28.184,-28.47C34.656,-27.009 36.472,-26.759 45.119,-24.837C48.647,-24.053 52.821,-23.386 55.777,-21.218C59.029,-18.853 62.281,-14.222 63.365,-10.28C63.858,-8.506 65.048,-6.611 65.541,-4.739C66.132,-2.374 65.534,0 63.069,-1.084C59.128,-2.76 55.58,-7.226 51.835,-9.295C47.302,-11.758 41.981,-13.63 36.856,-14.615C25.031,-17.08 12.713,-18.262 0.592,-17.473C-0.197,-17.473 -0.985,-17.375 -1.675,-17.277L0,-31.763Z" style="fill:rgb(232,81,30);fill-rule:nonzero;"/>
        </g>
        <g transform="matrix(1.36796,0,0,1.73115,99.7113,176.032)">
            <path d="M0,1.708C2.084,-0.696 4.792,-2.801 8.074,-1.415C10.771,-0.276 12.267,2.221 12.788,5.001C12.942,5.824 14.197,5.475 14.043,4.654C13.429,1.369 11.415,-1.633 8.16,-2.808C4.532,-4.116 1.384,-1.872 -0.921,0.787C-1.468,1.418 -0.55,2.343 0,1.708" style="fill-rule:nonzero;"/>
        </g>
        <g transform="matrix(1.36796,0,0,1.73115,83.9049,156.018)">
            <path d="M0,5.539C1.627,5.579 3.169,6.011 4.685,6.572C4.992,6.687 5.432,6.444 5.487,6.118C5.853,3.932 6.535,-0.072 3.478,-0.623C0.573,-1.148 -0.18,2.622 -0.628,4.714C-0.804,5.532 0.452,5.881 0.628,5.061C0.904,3.774 1.338,0.508 3.091,0.641C5.258,0.805 4.458,4.416 4.231,5.771C4.498,5.62 4.764,5.468 5.032,5.317C3.405,4.714 1.741,4.279 0,4.236C-0.839,4.216 -0.838,5.518 0,5.539" style="fill-rule:nonzero;"/>
        </g>
        <g transform="matrix(1.36796,0,0,1.73115,135.974,168.889)">
            <path d="M0,4.067C1.671,4.555 3.18,5.26 4.563,6.325C4.852,6.547 5.279,6.354 5.454,6.091C6.691,4.225 7.347,0.214 4.897,-1.022C2.006,-2.48 0.727,1.284 -0.389,3.11C-0.827,3.828 0.298,4.483 0.736,3.768C1.022,3.299 1.345,2.84 1.577,2.344C2.04,1.354 2.707,-0.439 4.172,0.095C6.065,0.785 5.121,4.239 4.329,5.433C4.626,5.356 4.923,5.278 5.22,5.2C3.751,4.068 2.121,3.329 0.346,2.811C-0.46,2.575 -0.804,3.832 0,4.067" style="fill-rule:nonzero;"/>
        </g>
        <g transform="matrix(1.36796,0,0,1.73115,16.908,95.6881)">
            <path d="M0,7.31C-0.84,6.612 -1.782,6.047 -2.611,5.335C-2.932,5.059 -3.265,4.736 -3.269,4.618C-3.284,4.165 -2.959,3.521 -2.806,3.114C-2.736,2.928 -2.456,1.938 -2.226,1.845C-1.918,1.72 -1.176,2.514 -1.009,2.674C-0.251,3.4 0.355,4.261 1.076,5.02C1.655,5.629 2.575,4.707 1.997,4.099C0.752,2.788 -2.129,-1.453 -3.643,1.756C-4.059,2.638 -4.906,4.234 -4.467,5.217C-3.878,6.537 -1.982,7.35 -0.921,8.231C-0.281,8.763 0.646,7.847 0,7.31" style="fill-rule:nonzero;"/>
        </g>
        <g transform="matrix(-1.35609,-0.227596,-0.179847,1.71613,65.2418,173.577)">
            <path d="M-1.141,-15.981C-0.904,-10.716 -0.621,-5.309 0.15,-0.096C0.273,0.736 -1.018,0.912 -1.141,0.083C-1.913,-5.132 -2.193,-10.539 -2.431,-15.803C-2.47,-16.635 -1.179,-16.819 -1.141,-15.981" style="fill-rule:nonzero;"/>
        </g>
        <g transform="matrix(1.36796,0,0,1.73115,20.8736,135.564)">
            <path d="M0,24.021C-1.045,19.477 -1.651,14.875 -2.23,10.253C-2.682,6.634 -3.478,3.221 -4.224,-0.343C-4.396,-1.163 -5.652,-0.816 -5.48,0.003C-4.603,4.19 -3.791,8.25 -3.251,12.503C-2.743,16.487 -2.157,20.45 -1.256,24.367C-1.068,25.184 0.188,24.839 0,24.021" style="fill-rule:nonzero;"/>
        </g>
        <g transform="matrix(1.36796,0,0,1.73115,6.42075,88.5523)">
            <path d="M0,24.916C2.865,26.48 7.206,24.048 9.289,22.224C12.415,19.62 15.02,16.148 17.537,13.109C18.752,11.719 19.968,9.202 21.704,8.595C23.441,7.986 25.351,8.768 27.001,9.376C31.428,11.025 35.596,13.543 39.59,15.973C41.326,17.103 51.202,23.58 52.156,20.106C52.677,18.369 53.813,18.494 52.597,17.366C50.774,15.629 44.191,11.286 42.194,9.809C38.287,6.944 34.293,3.733 30.126,1.214C27.001,-0.609 21.965,-1.564 18.752,0.52C17.017,1.649 15.714,3.646 14.412,5.208C13.109,6.771 11.634,8.335 10.418,10.07C7.64,14.065 4.948,18.318 1.562,21.791C0.868,22.485 0,23.266 -0.781,23.874L0,24.916Z" style="fill:rgb(232,81,30);fill-rule:nonzero;"/>
        </g>
        <g transform="matrix(1.36796,0,0,1.73115,28.9865,129.049)">
            <path d="M0,9.467C1.446,9.31 2.886,9.22 4.34,9.207C4.692,9.204 4.992,8.911 4.992,8.556C4.987,6.149 5.048,-0.188 1.401,-0.109C-2.314,-0.03 -0.651,6.621 -0.651,8.816C-0.651,9.654 0.651,9.655 0.651,8.816C0.651,7.316 -0.669,1.475 1.399,1.194C3.76,0.873 3.687,7.166 3.689,8.556C3.906,8.339 4.123,8.122 4.34,7.905C2.886,7.918 1.446,8.007 0,8.164C-0.825,8.255 -0.834,9.558 0,9.467" style="fill-rule:nonzero;"/>
        </g>
        <g transform="matrix(1.36796,0,0,1.73115,54.9952,127.257)">
            <path d="M0,8.592C1.136,8.586 2.427,8.469 3.491,8.937C3.976,9.151 4.405,8.892 4.471,8.375C4.722,6.414 6.272,0.392 3.115,-0.069C-0.236,-0.559 -0.514,5.754 -0.651,7.941C-0.704,8.778 0.599,8.774 0.651,7.941C0.721,6.83 1.373,0.317 3.133,1.291C4.017,1.779 3.685,4.118 3.623,4.912C3.53,6.075 3.317,7.22 3.169,8.375C3.495,8.188 3.822,8 4.149,7.813C2.828,7.231 1.418,7.281 0,7.289C-0.838,7.294 -0.84,8.597 0,8.592" style="fill-rule:nonzero;"/>
        </g>
        <g transform="matrix(1.36796,0,0,1.73115,36.4839,151.395)">
            <path d="M0,13.728C-0.345,10.393 -0.889,4.64 2.293,2.407C5.155,0.399 8.106,3.032 8.87,5.829C9.473,8.033 9.421,10.47 9.575,12.736C9.632,13.568 10.935,13.574 10.878,12.736C10.583,8.411 10.355,-0.834 3.477,0.425C-2.028,1.434 -1.72,9.684 -1.303,13.728C-1.217,14.554 0.086,14.562 0,13.728" style="fill-rule:nonzero;"/>
        </g>
        <g transform="matrix(1.36796,0,0,1.73115,464.074,194.418)">
            <path d="M0,-32.807L0.618,-32.22L0.618,-31.902C0.296,-31.441 -1.511,-30.747 -4.799,-29.824C-8.608,-27.588 -10.512,-24.108 -10.512,-19.386C-10.512,-12.215 -7.007,-6.151 0,-1.198L0,-0.586L-0.59,0L-0.883,0C-4.192,0 -7.803,-4.474 -11.719,-13.421L-12.308,-18.187L-12.308,-20.29C-12.308,-26.985 -8.608,-31.155 -1.205,-32.807L0,-32.807Z" style="fill-rule:nonzero;stroke:black;stroke-width:0.75px;"/>
        </g>
        <g transform="matrix(1.36796,0,0,1.73115,495.414,192.125)">
            <path d="M0,-23.319L1.49,-23.319C5.554,-23.319 9.528,-18.241 13.415,-8.083L19.085,-8.965L19.376,-8.672L19.376,-8.083C19.376,-7.409 17.691,-6.804 14.321,-6.27L15.81,-1.202L15.224,-0.615L14.906,-0.615C14.408,-0.615 13.522,-2.402 12.243,-5.976L6.281,-5.683L-8.332,-6.59C-8.812,-2.198 -9.307,0 -9.822,0L-10.116,0C-10.524,0 -10.727,-0.303 -10.727,-0.907C-10.727,-3.451 -10.524,-5.345 -10.116,-6.59L-15.199,-6.884L-16.396,-6.884L-16.981,-7.47L-16.981,-8.083L-16.396,-8.672L-10.116,-8.379L-9.822,-8.379C-8.03,-18.337 -4.756,-23.319 0,-23.319ZM-8.038,-8.379L-7.747,-8.083L-7.453,-8.083L5.963,-7.47L11.631,-7.765C8.118,-17.139 4.541,-21.824 0.905,-21.824C-3.461,-21.824 -6.442,-17.341 -8.038,-8.379Z" style="fill-rule:nonzero;stroke:black;stroke-width:0.75px;"/>
        </g>
        <g transform="matrix(1.36796,0,0,1.73115,556.107,207.546)">
            <path d="M0,-33.393L0.616,-32.806L0.616,-32.195C-2.931,-30.313 -4.83,-29.123 -5.078,-28.627C-6.879,-27.276 -7.778,-25.094 -7.778,-22.074L-6.282,-8.654C-6.282,-4.57 -8.678,-1.784 -13.472,-0.292L-16.761,0L-17.056,-0.292L-17.056,-1.491C-17.056,-2.094 -16.253,-2.397 -14.649,-2.397C-10.657,-3.516 -8.661,-5.495 -8.661,-8.334L-8.661,-9.534L-9.864,-21.169L-9.864,-23.245C-9.864,-28.075 -6.967,-31.458 -1.176,-33.393L0,-33.393Z" style="fill-rule:nonzero;stroke:black;stroke-width:0.75px;"/>
        </g>
        <g transform="matrix(1.36796,0,0,1.73115,591.497,194.418)">
            <path d="M0,-32.807L0.617,-32.22L0.617,-31.902C0.295,-31.441 -1.512,-30.747 -4.801,-29.824C-8.609,-27.588 -10.513,-24.108 -10.513,-19.386C-10.513,-12.215 -7.008,-6.151 0,-1.198L0,-0.586L-0.591,0L-0.886,0C-4.193,0 -7.804,-4.474 -11.721,-13.421L-12.311,-18.187L-12.311,-20.29C-12.311,-26.985 -8.609,-31.155 -1.207,-32.807L0,-32.807Z" style="fill-rule:nonzero;stroke:black;stroke-width:0.75px;"/>
        </g>
        <g transform="matrix(1.36796,0,0,1.73115,609.786,178.225)">
            <path d="M0,-10.442L0.626,-10.442C1.025,-10.442 1.225,-10.141 1.225,-9.537C0.608,-6.322 0.3,-3.444 0.3,-0.904L0.3,0.293L0,1.493L0.3,2.693L0.626,9.246L0.3,9.54L-0.598,9.54C-1.414,9.54 -1.823,7.159 -1.823,2.4L-1.823,0.001C-1.823,-6.358 -1.215,-9.838 0,-10.442ZM2.45,-19.982L3.347,-19.982L3.974,-19.395L3.974,-18.808L3.049,-17.903L2.749,-17.903L1.824,-18.808L1.824,-19.395L2.45,-19.982Z" style="fill-rule:nonzero;stroke:black;stroke-width:0.75px;"/>
        </g>
        <g transform="matrix(1.36796,0,0,1.73115,651.754,200.202)">
            <path d="M0,-26.869L0.293,-27.161L1.493,-27.161C1.903,-27.161 2.108,-26.869 2.108,-26.282L1.493,-6.268L1.2,-5.972L0.614,-5.972C-7.355,-9.758 -13.33,-12.343 -17.315,-13.729L-19.716,0.292L-20.623,0.292L-21.209,-0.296L-21.209,-0.59C-20.357,-10.949 -19.458,-16.129 -18.514,-16.129L-18.221,-16.129C-12.904,-14.671 -7.026,-12.183 -0.587,-8.665L0,-26.869Z" style="fill-rule:nonzero;stroke:black;stroke-width:0.75px;"/>
        </g>
        <g transform="matrix(1.36796,0,0,1.73115,687.198,192.125)">
            <path d="M0,-23.319L1.49,-23.319C5.554,-23.319 9.528,-18.241 13.416,-8.083L19.085,-8.965L19.378,-8.672L19.378,-8.083C19.378,-7.409 17.691,-6.804 14.321,-6.27L15.811,-1.202L15.226,-0.615L14.906,-0.615C14.41,-0.615 13.522,-2.402 12.245,-5.976L6.282,-5.683L-8.331,-6.59C-8.809,-2.198 -9.307,0 -9.822,0L-10.114,0C-10.523,0 -10.726,-0.303 -10.726,-0.907C-10.726,-3.451 -10.523,-5.345 -10.114,-6.59L-15.198,-6.884L-16.396,-6.884L-16.981,-7.47L-16.981,-8.083L-16.396,-8.672L-10.114,-8.379L-9.822,-8.379C-8.029,-18.337 -4.755,-23.319 0,-23.319ZM-8.038,-8.379L-7.746,-8.083L-7.453,-8.083L5.963,-7.47L11.632,-7.765C8.118,-17.139 4.543,-21.824 0.906,-21.824C-3.46,-21.824 -6.441,-17.341 -8.038,-8.379Z" style="fill-rule:nonzero;stroke:black;stroke-width:0.75px;"/>
        </g>
        <g transform="matrix(1.36796,0,0,1.73115,319.998,255.355)">
            <path d="M0,-63.912L1.063,-63.912C6.241,-62.254 8.829,-59 8.829,-54.149L8.829,-52.078C8.829,-49.469 4.854,-44.818 -3.097,-38.127L-4.114,-33.521C-4.114,-30.882 1.74,-20.567 13.452,-2.579L13.452,-1.566L11.927,0C10.2,0 3.991,-9.27 -6.703,-27.811L-8.275,-35.041C-8.275,-38.048 -3.96,-43.207 4.669,-50.512L5.686,-53.091C4.299,-57.91 2.927,-60.32 1.571,-60.32L0.509,-60.32C-4.022,-60.32 -8.152,-52.584 -11.881,-37.114L-12.435,-25.233L-12.435,-9.761C-12.435,-5.312 -12.944,-3.085 -13.961,-3.085L-14.47,-3.085L-16.041,-4.605L-16.041,-16.485C-16.041,-39.292 -12.929,-53.566 -6.703,-59.306C-4.238,-62.376 -2.004,-63.912 0,-63.912Z" style="fill-rule:nonzero;stroke:black;stroke-width:1.08px;"/>
        </g>
        <g transform="matrix(1.36796,0,0,1.73115,385.208,272.356)">
            <path d="M0,-40.324L2.578,-40.324C9.608,-40.324 16.485,-31.543 23.208,-13.981L33.016,-15.501L33.522,-14.995L33.522,-13.981C33.522,-12.811 30.605,-11.765 24.774,-10.842L27.352,-2.076L26.339,-1.062L25.787,-1.062C24.926,-1.062 23.392,-4.153 21.182,-10.335L10.867,-9.827L-14.413,-11.396C-15.242,-3.8 -16.102,0 -16.992,0L-17.498,0C-18.205,0 -18.558,-0.523 -18.558,-1.569C-18.558,-5.967 -18.205,-9.243 -17.498,-11.396L-26.294,-11.903L-28.366,-11.903L-29.379,-12.918L-29.379,-13.981L-28.366,-14.995L-17.498,-14.488L-16.992,-14.488C-13.892,-31.712 -8.228,-40.324 0,-40.324ZM-13.907,-14.488L-13.4,-13.981L-12.894,-13.981L10.315,-12.918L20.123,-13.426C14.045,-29.636 7.858,-37.74 1.565,-37.74C-5.987,-37.74 -11.143,-29.99 -13.907,-14.488Z" style="fill-rule:nonzero;stroke:black;stroke-width:1.08px;"/>
        </g>
        <g transform="matrix(1.36796,0,0,1.73115,478.3,306.28)">
            <path d="M0,-36.749C4.852,-35.302 11.209,-28.054 19.072,-15.005C21.161,-11.772 22.204,-9.54 22.204,-8.309L21.145,-7.248L19.625,-7.248C14.802,-16.05 9.643,-23.468 4.146,-29.5L1.013,-32.085C-3.318,-21.406 -6.236,-16.066 -7.741,-16.066C-15.848,-22.96 -20.84,-26.407 -22.714,-26.407L-30.959,0L-32.525,0L-33.539,-1.062C-33.539,-5.555 -30.621,-15.373 -24.786,-30.516L-23.726,-30.516C-19.887,-29.776 -14.727,-26.683 -8.246,-21.236L-7.741,-21.236C-3.502,-31.239 -0.922,-36.41 0,-36.749Z" style="fill-rule:nonzero;stroke:black;stroke-width:1.08px;"/>
        </g>
        <g transform="matrix(1.36796,0,0,1.73115,548.635,328.679)">
            <path d="M0,-49.593L1.576,-49.593C5.814,-49.593 8.938,-46.659 10.949,-40.79L10.949,-36.135C10.949,-27.102 6.432,-20.91 -2.598,-17.561L1.576,-1.061L0,0L-0.511,0C-1.965,0 -4.733,-10.846 -8.816,-32.54L-8.816,-38.717C-8.816,-45.968 -5.877,-49.593 0,-49.593ZM-5.708,-36.135L-3.619,-21.203C1.361,-21.203 4.993,-25.841 7.284,-35.121L7.284,-38.717C6.696,-43.879 4.623,-46.459 1.067,-46.459C-3.45,-46.459 -5.708,-43.019 -5.708,-36.135Z" style="fill-rule:nonzero;stroke:black;stroke-width:1.08px;"/>
        </g>
        <g transform="matrix(1.36796,0,0,1.73115,595.52,306.782)">
            <path d="M0,-18.065L1.079,-18.065C1.765,-18.065 2.11,-17.543 2.11,-16.498C1.048,-10.937 0.516,-5.96 0.516,-1.565L0.516,0.508L0,2.582L0.516,4.656L1.079,15.992L0.516,16.499L-1.031,16.499C-2.439,16.499 -3.142,12.382 -3.142,4.148L-3.142,0C-3.142,-10.998 -2.096,-17.02 0,-18.065ZM4.221,-34.564L5.769,-34.564L6.846,-33.549L6.846,-32.535L5.253,-30.968L4.736,-30.968L3.142,-32.535L3.142,-33.549L4.221,-34.564Z" style="fill-rule:nonzero;stroke:black;stroke-width:1.08px;"/>
        </g>
        <g transform="matrix(1.36796,0,0,1.73115,668.14,312.391)">
            <path d="M0,-46.468L0.508,-46.975L2.584,-46.975C3.292,-46.975 3.645,-46.468 3.645,-45.455L2.584,-10.833L2.077,-10.326L1.061,-10.326C-12.719,-16.872 -23.052,-21.344 -29.943,-23.74L-34.095,0.507L-35.663,0.507L-36.679,-0.507L-36.679,-1.013C-35.202,-18.932 -33.65,-27.889 -32.018,-27.889L-31.512,-27.889C-22.314,-25.37 -12.15,-21.068 -1.016,-14.981L0,-46.468Z" style="fill-rule:nonzero;stroke:black;stroke-width:1.08px;"/>
        </g>
        <g transform="matrix(1.36796,0,0,1.73115,729.53,307.074)">
            <path d="M0,-40.324L2.58,-40.324C9.607,-40.324 16.486,-31.543 23.209,-13.981L33.017,-15.501L33.524,-14.995L33.524,-13.981C33.524,-12.811 30.607,-11.765 24.775,-10.842L27.353,-2.076L26.339,-1.062L25.787,-1.062C24.928,-1.062 23.393,-4.153 21.183,-10.335L10.867,-9.827L-14.413,-11.396C-15.242,-3.8 -16.102,0 -16.992,0L-17.498,0C-18.205,0 -18.556,-0.523 -18.556,-1.569C-18.556,-5.967 -18.205,-9.243 -17.498,-11.396L-26.293,-11.903L-28.365,-11.903L-29.379,-12.918L-29.379,-13.981L-28.365,-14.995L-17.498,-14.488L-16.992,-14.488C-13.891,-31.712 -8.226,-40.324 0,-40.324ZM-13.906,-14.488L-13.399,-13.981L-12.893,-13.981L10.315,-12.918L20.124,-13.426C14.045,-29.636 7.859,-37.74 1.565,-37.74C-5.986,-37.74 -11.143,-29.99 -13.906,-14.488Z" style="fill-rule:nonzero;stroke:black;stroke-width:1.08px;"/>
        </g>
    </g>
</svg>
