<svg width="1000" height="268" viewBox="0 0 1000 268" fill="none" xmlns="http://www.w3.org/2000/svg">
<path d="M260.872 266.052C260.872 265.275 260.631 264.788 260.337 264.97C260.042 265.152 259.434 264.421 258.985 263.346C258.511 262.212 257.78 261.392 257.244 261.392C256.514 261.392 256.455 261.229 256.963 260.617C257.457 260.022 257.44 259.787 256.893 259.603C256.332 259.414 256.356 259.148 257.008 258.355C257.639 257.587 257.671 257.292 257.146 257.115C256.766 256.987 256.456 256.64 256.456 256.344C256.456 256.048 256.701 255.957 257.001 256.143C257.314 256.336 257.407 256.115 257.218 255.623C257.037 255.152 257.173 254.767 257.52 254.767C257.98 254.767 257.99 254.467 257.56 253.662C257.085 252.775 257.14 252.558 257.838 252.558C258.541 252.558 258.575 252.416 258.016 251.818C257.301 251.053 255.913 251.737 256.094 252.765C256.141 253.031 255.888 253.356 255.533 253.487C255.107 253.644 254.995 253.307 255.206 252.503C255.381 251.831 255.3 251.413 255.024 251.575C254.749 251.736 254.026 251.685 253.419 251.462C252.543 251.14 252.801 250.973 254.661 250.654C256.124 250.404 257.008 249.959 257.008 249.473C257.008 249.044 257.49 248.694 258.08 248.694C258.67 248.694 259.493 248.208 259.908 247.615C260.653 246.552 263.465 245.101 264.377 245.31C264.634 245.369 266.249 245.063 267.965 244.63C269.681 244.197 272.639 243.667 274.537 243.453C276.435 243.239 278.127 242.84 278.296 242.566C278.465 242.293 279.148 242.063 279.814 242.056C280.479 242.049 282.514 241.31 284.336 240.412C286.157 239.515 288.068 238.775 288.582 238.769C289.095 238.762 289.669 238.508 289.856 238.204C290.044 237.9 289.917 237.652 289.575 237.652C288.809 237.652 289.085 235.183 289.856 235.129C290.16 235.108 291.498 234.779 292.829 234.398C294.16 234.017 295.856 233.857 296.597 234.043C297.338 234.229 298.733 234.138 299.697 233.84C300.661 233.543 302.836 233.028 304.531 232.697C309.181 231.787 311.664 231.027 311.664 230.513C311.664 229.981 283.342 230.352 276.33 230.977C272.636 231.305 271.227 231.215 269.705 230.554C268.643 230.092 267.649 229.678 267.497 229.634C267.345 229.59 266.495 229.254 265.608 228.888C264.72 228.521 263.602 228.374 263.123 228.561C262.644 228.747 255.296 228.989 246.794 229.098C238.292 229.207 230.218 229.544 228.851 229.846C227.485 230.148 223.39 230.684 219.752 231.037C216.113 231.389 212.661 231.932 212.08 232.243C211.499 232.554 209.81 232.692 208.327 232.549C206.844 232.407 205.497 232.507 205.333 232.772C205.169 233.037 204.804 233.11 204.522 232.936C204.239 232.761 204.008 232.881 204.008 233.203C204.008 233.524 203.821 233.738 203.594 233.678C202.675 233.435 197.935 234.439 197.935 234.877C197.935 235.416 193.764 236.311 192.187 236.111C191.607 236.038 190.666 236.478 190.096 237.091C189.525 237.703 188.633 238.233 188.114 238.269C187.594 238.305 185.679 238.388 183.857 238.454C182.035 238.519 179.55 238.859 178.336 239.21C177.121 239.561 175.189 239.987 174.042 240.158C172.895 240.328 172.091 240.686 172.256 240.953C172.77 241.784 171.543 242.002 161.951 242.782C161.441 242.823 161.069 243.093 161.123 243.38C161.177 243.668 160.724 244.049 160.117 244.228C159.51 244.407 158.386 244.98 157.619 245.501C156.616 246.183 154.525 246.549 150.166 246.804C146.833 247 143.533 247.134 142.831 247.102C142.129 247.07 140.792 247.439 139.859 247.921C138.896 248.419 138.016 248.579 137.823 248.291C137.347 247.585 135.404 246.907 135.829 247.596C136.278 248.322 135.741 248.285 134.271 247.488C131.304 245.88 117.259 247.102 115.793 249.096C115.34 249.713 115.29 250.13 115.655 250.251C115.97 250.356 116.227 250.662 116.227 250.931C116.227 251.199 115.879 251.286 115.454 251.123C115.03 250.96 114.518 251.092 114.318 251.416C113.782 252.283 117.091 252.157 118.876 251.243C119.696 250.824 121.485 250.298 122.852 250.074C124.218 249.85 125.771 249.587 126.302 249.488C126.834 249.39 127.268 249.635 127.268 250.032C127.268 250.544 127.955 250.702 129.615 250.572C131.428 250.43 131.739 250.517 130.983 250.955C130.445 251.267 130.13 251.723 130.282 251.969C130.609 252.499 127.523 253.032 121.547 253.478C118.192 253.728 117.097 253.629 116.725 253.042C116.376 252.491 116.241 252.472 116.235 252.972C116.223 253.989 112.904 253.825 111.715 252.749C111.16 252.246 110.706 252.07 110.706 252.357C110.706 252.674 108.914 252.73 106.151 252.5C103.646 252.291 99.7332 251.984 97.4559 251.816C95.1785 251.649 92.4992 251.223 91.5018 250.87C90.5044 250.517 89.07 250.347 88.3141 250.491C87.5583 250.636 86.7833 250.5 86.5918 250.191C86.3777 249.844 86.5221 249.799 86.9663 250.074C87.4159 250.352 87.555 250.304 87.3344 249.947C86.9187 249.274 84.2856 248.665 81.1694 248.52C79.3312 248.435 78.9511 248.219 78.9012 247.231C78.8476 246.171 79.2283 246 82.4897 245.622C84.4964 245.39 86.7593 245.253 87.5184 245.319L88.8986 245.438L87.4337 244.642C84.8935 243.261 82.4165 242.679 77.5809 242.324C74.9999 242.135 71.2734 241.575 69.2997 241.079C64.7602 239.938 49.0088 239.851 48.3218 240.963C48.0854 241.345 47.5997 241.477 47.2425 241.257C46.3201 240.687 36.1604 240.495 36.506 241.054C36.8293 241.577 36.747 241.586 29.5249 241.805C24.4276 241.96 22.276 242.148 14.6436 243.11C11.1634 243.548 9.12861 243.297 7.13953 242.184C6.30653 241.717 6.48606 241.452 8.49216 240.186C10.1102 239.165 12.087 238.564 15.0708 238.187C20.1628 237.543 25.0211 236.732 28.5215 235.942C30.6152 235.469 31.0328 235.176 30.8134 234.338C30.6559 233.735 30.2256 233.434 29.7714 233.609C29.3459 233.772 28.9977 233.631 28.9977 233.294C28.9977 232.958 29.4325 232.679 29.9638 232.675C30.7895 232.668 30.8096 232.589 30.1019 232.131C29.5781 231.793 29.521 231.593 29.9465 231.588C30.3176 231.583 30.4763 231.206 30.3004 230.748C30.0784 230.17 30.6292 229.629 32.112 228.97L34.2425 228.023L28.8483 227.69C25.8815 227.507 21.9686 227.383 20.153 227.413C18.3374 227.444 16.8519 227.438 16.8519 227.4C16.8519 227.362 17.3488 226.758 17.9561 226.058C18.5634 225.358 19.0602 224.953 19.0602 225.158C19.0602 225.364 19.6197 225.165 20.3035 224.717C20.9872 224.269 23.3884 223.617 25.6395 223.267C27.8905 222.918 30.7162 222.285 31.9187 221.861C33.1213 221.437 35.0057 221.081 36.1062 221.07C39.1807 221.04 46.9255 219.026 44.686 218.839C44.4077 218.816 43.6831 218.682 43.0758 218.543C42.4685 218.403 41.6683 218.222 41.2975 218.141C40.0344 217.864 39.9537 217.327 41.1197 216.956C41.7597 216.753 42.9326 215.985 43.7263 215.25C44.52 214.514 45.7237 213.912 46.4013 213.912C47.0789 213.912 47.9167 213.571 48.2631 213.154C48.7808 212.53 48.3255 212.33 45.7083 212.032C43.9568 211.832 41.7784 211.549 40.8675 211.402C38.7003 211.052 30.0766 211.102 29.4843 211.469C28.6852 211.962 22.3727 212.195 22.3727 211.731C22.3727 211.487 22.7454 210.978 23.2008 210.6C23.6563 210.222 24.029 209.653 24.029 209.336C24.029 209.019 23.8655 208.923 23.6657 209.123C23.4659 209.323 22.969 209.209 22.5615 208.871C22.1513 208.531 21.8207 208.492 21.8207 208.784C21.8207 209.074 21.448 209.312 20.9925 209.312C19.6666 209.312 20.0303 208.721 21.8524 207.914C23.9013 207.007 23.6079 206.627 20.3047 205.907C17.2913 205.251 16.7169 204.223 18.8773 203.352C21.1132 202.451 31.6179 201.281 37.6229 201.264C40.4377 201.256 43.3996 201.085 44.2052 200.883L45.6697 200.515L44.0967 199.229C43.2316 198.521 42.1036 197.933 41.5902 197.922C40.2815 197.894 39.8838 197.016 40.5857 195.704C41.3269 194.319 46.1292 191.829 48.0588 191.829C48.8723 191.829 49.3426 191.591 49.1487 191.277C48.961 190.973 48.3519 190.725 47.795 190.725C46.8596 190.725 45.8197 189.347 46.0246 188.379C46.2329 187.395 37.4735 188.495 36.7404 189.545C36.1806 190.347 22.0828 192.443 20.6969 191.93L19.3772 191.442L20.661 190.755C21.367 190.377 25.9539 189.399 30.854 188.582C39.8206 187.088 42.0029 186.032 36.1273 186.032C34.322 186.032 32.6611 185.717 32.1212 185.272C31.3543 184.639 30.2925 184.622 25.8197 185.168C17.5951 186.172 12.8153 186.862 11.6944 187.207C10.9518 187.435 10.7284 187.271 10.8663 186.6C11.0672 185.622 12.7752 184.474 15.453 183.517C17.7579 182.694 16.3252 181.968 13.3781 182.466C12.1004 182.682 9.93708 183.034 8.57068 183.248L6.08631 183.637L8.15662 181.653C9.29529 180.561 10.2269 179.58 10.2269 179.471C10.2269 179.363 8.68636 179.1 6.80345 178.887C2.35153 178.383 -0.0305748 177.135 0.000265199 175.322C0.0164652 174.366 3.58804 173.084 6.9113 172.841C8.27943 172.741 11.3863 172.264 13.8154 171.782C16.2446 171.299 19.9715 170.793 22.0974 170.656C24.2233 170.519 27.4529 170.146 29.2744 169.826C40.5869 167.84 43.133 167.351 43.6206 167.071C43.9202 166.899 43.0507 166.487 41.6883 166.156C40.3173 165.822 39.2112 165.229 39.2112 164.827C39.2112 163.898 44.7756 161.88 49.8257 160.978C52.2823 160.539 54.1 159.886 54.6951 159.228C55.2277 158.64 57.0759 157.897 58.9043 157.538C63.0529 156.721 62.9409 155.947 58.4332 154.282C57.4668 153.925 56.788 153.345 56.9249 152.994C57.2363 152.195 59.7952 150.975 61.1611 150.975C61.7258 150.975 62.0342 150.727 61.8466 150.423C61.6589 150.119 59.6568 149.871 57.3973 149.871C53.6747 149.871 52.1798 149.307 53.9794 148.58C55.5874 147.932 47.5304 148.283 43.5508 149.035C38.5951 149.972 35.8987 149.58 35.8987 147.922C35.8987 147.158 37.3408 146.155 41.3177 144.152C45.0641 142.266 46.5126 141.279 46.0104 140.955C45.0567 140.339 45.998 139.709 49.7008 138.486C54.9272 136.76 59.0734 133.866 58.5291 132.325C58.1573 131.272 60.1944 130.698 68.6104 129.483C72.7937 128.879 76.9832 128.002 77.9203 127.535C78.8574 127.068 80.8413 126.539 82.3291 126.361C86.4313 125.869 94.2807 123.883 95.5084 123.027C96.1073 122.609 97.3495 122.249 98.2688 122.228C99.1881 122.207 100.437 121.976 101.044 121.715C101.924 121.337 101.699 121.224 99.9402 121.159C95.2345 120.986 92.7375 120.522 92.1136 119.705C91.6877 119.147 91.0224 118.976 90.1813 119.207C89.0775 119.51 89.0347 119.474 89.8747 118.948C90.4116 118.611 91.2811 118.407 91.807 118.493C92.3329 118.58 93.0974 118.441 93.5059 118.185C93.9454 117.91 94.8047 118.018 95.6103 118.449C96.6715 119.017 97.2024 119.033 98.0164 118.525C98.6773 118.112 99.1837 118.072 99.3951 118.414C99.5789 118.711 101.143 118.963 102.871 118.974C104.599 118.985 106.634 119.349 107.393 119.783C109.047 120.728 109.602 120.797 109.602 120.059C109.602 119.755 109.214 119.507 108.741 119.507C108.268 119.507 108.016 119.286 108.183 119.017C108.349 118.748 107.965 118.392 107.329 118.226C106.693 118.059 106.281 117.596 106.413 117.197C106.656 116.459 109.129 116.027 116.779 115.385C123.69 114.806 125.612 114.494 125.612 113.952C125.612 113.667 125.239 113.434 124.784 113.434C124.324 113.434 123.956 112.943 123.956 112.329C123.956 111.52 124.324 111.225 125.336 111.225C126.924 111.225 127.195 110.375 125.729 109.992C125.186 109.85 122.391 109.866 119.518 110.028C111.15 110.501 107.803 110.343 106.053 109.396C105.164 108.915 104.277 108.62 104.082 108.74C103.888 108.86 103.831 108.259 103.957 107.404C104.23 105.539 103.454 105.248 97.7853 105.092C94.3927 104.999 94.1294 104.915 95.3084 104.304C97.2481 103.299 104.363 101.856 108.606 101.608C110.775 101.481 112.823 101.028 113.56 100.512C115.128 99.413 116.073 99.3993 117.134 100.46C117.611 100.937 118.94 101.283 120.269 101.276C124.361 101.255 139.627 99.7021 141.7 99.0962C143.636 98.5305 143.695 98.4391 143.286 96.6284C143.029 95.4874 143.087 94.5234 143.433 94.1767C143.827 93.783 143.81 93.3709 143.379 92.8512C142.06 91.262 143.738 90.933 151.795 91.2008C158.055 91.4089 160.008 91.2949 161.278 90.6471C162.622 89.9618 168.681 89.0164 172.815 88.8471C173.422 88.8223 175.161 88.5798 176.68 88.3084L179.44 87.8148L176.956 87.4132C175.589 87.1923 171.49 87.1384 167.846 87.2932C164.203 87.4481 158.985 87.5417 156.253 87.5013C153.52 87.4609 148.178 87.8325 144.383 88.3271C136.873 89.3057 129.128 89.9903 125.794 89.9702C124.631 89.9632 123.524 90.1743 123.333 90.4395C123.142 90.7047 122.211 90.9533 121.263 90.9921C120.315 91.0309 119.539 91.2683 119.539 91.5197C119.539 91.7711 118.98 91.8195 118.297 91.6273C117.325 91.3538 117.235 91.4038 117.883 91.8577C118.597 92.3575 118.578 92.4387 117.745 92.446C117.214 92.451 116.779 92.7314 116.779 93.07C116.779 93.4481 116.254 93.3416 115.418 92.794C113.907 91.8037 113.244 91.6483 113.704 92.3917C113.87 92.6608 113.512 93.0102 112.908 93.1681C112.28 93.3325 111.81 93.1822 111.81 92.8168C111.81 92.4472 110.938 92.1784 109.74 92.1784C108.424 92.1784 107.716 92.4202 107.799 92.8421C107.888 93.2989 107.293 93.4245 105.89 93.245C103.592 92.9507 101.325 91.6643 101.312 90.6475C101.306 90.2128 101.112 90.2668 100.768 90.7982C100.353 91.4409 100.231 91.2783 100.225 90.0718C100.214 88.0805 101.124 86.3816 102.201 86.3816C102.663 86.3816 102.888 86.1331 102.701 85.8295C102.513 85.5258 102.809 85.2584 103.358 85.2351C105.177 85.1581 106.333 84.8236 107.563 84.0176C108.666 83.2949 111.258 83.5731 111.258 84.4142C111.258 84.5662 110.925 84.5629 110.518 84.4062C110.111 84.2501 109.428 84.554 109 85.0816C108.329 85.9082 108.33 85.9755 109.006 85.5682C109.609 85.2047 109.7 85.3294 109.401 86.1082C109.169 86.7139 109.298 87.3015 109.722 87.5705C110.778 88.2407 111.667 88.1146 110.706 87.4309C110.083 86.9874 110.403 86.9146 111.999 87.1367C113.171 87.3 114.57 87.1502 115.128 86.8016C115.892 86.3245 116.334 86.3344 116.946 86.8423C117.598 87.3834 117.837 87.3235 118.183 86.5331C118.418 85.9939 118.571 85.3665 118.523 85.1388C118.475 84.911 118.788 84.7247 119.218 84.7247C119.648 84.7247 120.095 84.4406 120.21 84.0933C120.326 83.746 121.15 83.3842 122.04 83.2892C122.931 83.1942 123.938 82.7369 124.277 82.2729C124.616 81.8089 125.095 81.6118 125.341 81.8348C125.587 82.0578 125.633 81.8055 125.442 81.2742C125.015 80.0848 126.071 79.9737 126.526 81.16C126.816 81.914 126.972 81.9041 127.889 81.0744C128.868 80.1887 128.926 80.1949 128.934 81.1885C128.941 82.0697 129.029 82.106 129.477 81.4121C130.275 80.1776 130.161 79.9087 128.684 79.5379C127.746 79.3027 127.364 78.8471 127.425 78.0377C127.523 76.7483 129.446 75.7843 131.661 75.9145C133.727 76.0359 135.55 75.3254 135.55 74.3993C135.55 73.8031 136.099 73.6281 137.62 73.7392C139.846 73.9016 143.589 73.2802 144.936 72.5248C145.604 72.1497 145.551 72.0521 144.66 72.0174C144.052 71.994 142.313 71.858 140.795 71.7157C136.1 71.2756 129.856 71.2894 127.603 71.745C126.057 72.0577 125.561 72.0051 125.838 71.5576C126.075 71.1733 125.926 71.0491 125.447 71.2328C124.993 71.4071 124.26 70.9018 123.677 70.0125C122.966 68.9269 122.873 68.4316 123.349 68.2728C123.796 68.1237 123.688 67.7944 123.02 67.27C122.112 66.5582 122.171 66.5146 123.68 66.7769C124.591 66.9352 125.026 66.9183 124.647 66.7393C123.248 66.0802 124.018 65.4018 126.165 65.4018C127.559 65.4018 128.376 65.6563 128.381 66.0919C128.387 66.5997 128.515 66.5842 128.864 66.033C129.163 65.5624 129.468 65.4928 129.686 65.8458C130.057 66.4455 130.76 66.3988 132.485 65.6601C133.077 65.4068 134.378 65.1829 135.376 65.1627C137.664 65.1163 138.407 63.7456 136.144 63.7456C135.249 63.7456 134.426 63.3866 134.246 62.9175C134.032 62.3587 134.273 62.0894 134.988 62.0894C135.57 62.0894 136.246 61.7788 136.489 61.3993C137.122 60.4096 139.372 59.2373 139.951 59.5953C140.221 59.7623 140.598 59.6467 140.789 59.3379C140.98 59.0294 141.822 58.7769 142.659 58.7769C143.497 58.7769 145.532 58.3734 147.182 57.8803C149.785 57.102 150.019 56.9231 148.955 56.5243C148.281 56.2716 143.672 56.0985 138.711 56.1396C133.751 56.1811 129.368 56.014 128.971 55.7688C128.56 55.5149 128.087 55.586 127.872 55.9341C127.428 56.6519 110.266 57.1961 109.839 56.5058C109.689 56.2632 109.181 56.2126 108.71 56.3935C108.13 56.6161 108.053 56.8459 108.473 57.1054C108.814 57.3162 108.338 57.4887 107.416 57.4887C106.493 57.4887 105.738 57.2512 105.738 56.961C105.738 56.6708 105.359 56.7476 104.896 57.1317C104.433 57.5158 103.878 57.6534 103.662 57.4376C103.446 57.2217 103.887 56.5751 104.642 56.0008L106.014 54.9564L104.633 55.2217C103.424 55.4542 103.39 55.4221 104.357 54.9624C105.95 54.2059 108.566 54.2842 110.1 55.1343C111.595 55.9627 113.467 55.6897 113.467 54.6432C113.467 54.1611 114.557 53.9446 117.055 53.9305C119.307 53.9178 120.644 54.1362 120.644 54.5168C120.644 54.8504 120.954 54.7163 121.334 54.2187C121.832 53.5652 123.327 53.2156 126.717 52.9597C129.298 52.7648 132.978 52.2549 134.894 51.8266C136.811 51.3982 139.171 51.0239 140.139 50.9947C141.107 50.9654 143.141 50.6025 144.659 50.1879C147.248 49.4811 146.956 49.4528 139.967 49.7353C135.867 49.9009 132.141 50.0405 131.685 50.0455C131.23 50.0505 125.516 50.6369 118.988 51.3486C112.459 52.0604 105.342 52.7186 103.171 52.8114C101 52.9042 99.3382 53.1663 99.4771 53.394C99.6161 53.6218 98.6593 53.8091 97.3509 53.8103C96.0425 53.8103 92.736 54.1725 90.0032 54.6124C85.317 55.3667 74.2935 56.1445 75.7906 55.6152C76.172 55.4804 76.3437 55.1428 76.1721 54.8651C76.0004 54.5875 76.5578 54.3483 77.4108 54.3337C78.2637 54.3195 79.8311 53.8358 80.8939 53.2596C81.9566 52.6834 83.323 51.9803 83.9303 51.6971C85.9264 50.7663 118.488 45.3796 126.165 44.7102C128.442 44.5116 135.026 43.8569 140.795 43.2555C146.564 42.6541 154.179 41.9209 157.716 41.6263C161.254 41.3315 165.344 40.7307 166.805 40.2911C168.724 39.7135 169.567 39.6625 169.842 40.1075C170.19 40.6718 175.999 40.5173 183.029 39.7568C184.092 39.6418 187.446 39.3926 190.482 39.2029C195.931 38.8625 204.232 37.7173 208.878 36.665C210.19 36.3679 211.496 36.2685 211.78 36.4441C212.065 36.6198 215.911 36.2161 220.328 35.547C226.863 34.5569 228.594 34.4563 229.622 35.0066C230.656 35.5598 231.98 35.4669 236.908 34.4958C245.111 32.8793 255.815 30.7777 261.149 29.7365C263.578 29.2623 267.107 28.5219 268.991 28.0913C270.876 27.6606 273.236 27.3095 274.236 27.3109C275.236 27.3109 277.173 26.9559 278.539 26.5186C280.842 25.7817 285.557 24.9635 298.138 23.1178C304.602 22.1696 305.904 21.9508 312.492 20.7053C315.529 20.1314 320.497 19.2517 323.534 18.7505C326.57 18.2494 329.8 17.7161 330.711 17.5655C337.157 16.5002 338.385 16.52 339.667 17.7101C340.359 18.3522 340.924 19.1596 340.924 19.5044C340.924 19.8491 341.111 20.1017 341.339 20.0658C341.566 20.0302 342.32 20.0302 343.014 20.0658C344.069 20.1204 344.185 20.3 343.724 21.1627C343.048 22.4256 343.588 23.1067 344.6 22.2671C345.739 21.3224 345.479 22.1721 344.17 23.6783C343.483 24.4684 342.103 25.1768 340.833 25.3913C338.979 25.7046 338.768 25.8772 339.361 26.5924C340.252 27.6659 339.5 27.7325 374.878 23.4519C377.307 23.158 381.654 22.7983 384.539 22.6527C387.424 22.5071 392.641 22.1265 396.133 21.8069C399.625 21.4873 404.221 21.1274 406.346 21.007C408.472 20.8868 411.193 20.531 412.394 20.2164C413.595 19.9018 418.358 19.6291 422.98 19.6105C427.601 19.5919 431.712 19.4658 432.114 19.3305C433.108 18.9965 446.045 18.3188 449.123 18.4395C450.484 18.493 451.978 18.8802 452.442 19.3004C453.483 20.242 456.133 20.3364 468.455 19.8709C474.12 19.6569 479.322 19.1703 481.03 18.6946C483.259 18.0739 486.956 17.904 496.765 17.9714C503.816 18.0202 515.548 17.8721 522.835 17.6431C537.604 17.1788 536.814 17.1735 552.096 17.8369C561.99 18.2664 567.698 18.2842 576.387 17.9128C577.906 17.8479 578.713 17.6811 578.182 17.5423C577.65 17.4035 577.216 17.0301 577.216 16.7127C577.216 16.332 578.765 16.2451 581.77 16.4572C584.275 16.6341 591.791 17.0306 598.471 17.3383C605.151 17.6461 613.722 18.1527 617.518 18.4642C632.766 19.7157 638.582 20.1567 646.502 20.6623C666.309 21.9268 676.75 22.4307 687.632 22.6472C692.642 22.7469 698.853 22.9977 701.434 23.2045C704.015 23.4114 707.866 23.5584 709.991 23.5311C712.117 23.5043 716.34 23.7259 719.377 24.0246C722.413 24.3233 732.247 24.677 741.23 24.8108C750.213 24.9445 758.659 25.2961 760.001 25.592C761.342 25.888 764.391 26.2647 766.776 26.4291C769.162 26.5936 771.895 26.8559 772.849 27.0121C776.114 27.5463 781.21 27.9094 788.663 28.139C795.226 28.3411 801.603 28.8262 811.022 29.84C812.541 30.0034 814.652 30.2064 815.715 30.2911C816.778 30.3759 819.511 30.6046 821.788 30.7995C824.065 30.9944 827.916 31.3059 830.344 31.4917C832.773 31.6774 834.885 31.9059 835.037 31.9994C835.189 32.093 836.727 32.3196 838.454 32.5032C840.18 32.6868 841.957 32.9766 842.402 33.1473C842.847 33.318 845.409 33.5316 848.095 33.6221C855.475 33.8705 855.465 33.869 855.465 34.7613C855.465 35.2168 855.728 35.5894 856.049 35.5894C856.371 35.5894 856.455 35.2988 856.235 34.9436C855.963 34.5031 856.143 34.4153 856.8 34.6675C857.33 34.871 858.311 35.0374 858.981 35.0374C859.803 35.0374 860.226 35.3963 860.282 36.1415C860.381 37.4613 860.082 37.5246 858.974 36.4176C857.819 35.262 856.526 35.3486 856.914 36.5556C857.106 37.1501 857.046 37.2844 856.759 36.9048C856.441 36.4843 854.886 36.4053 851.876 36.6569C846.695 37.09 842.784 36.9708 835.59 36.1606C832.705 35.8358 828.979 35.4364 827.309 35.2731C825.639 35.1098 823.982 34.8815 823.628 34.7656C823.273 34.6498 822.839 34.9318 822.662 35.3922C822.424 36.0123 821.9 36.1326 820.641 35.8561C818.663 35.4217 817.392 35.2566 812.126 34.7497C810.001 34.5451 808.113 34.2863 807.932 34.1747C807.545 33.9367 800.16 33.8976 790.043 34.08C783.624 34.1956 779.098 33.8796 775.721 33.08C773.818 32.6294 760.507 32.4345 760.507 32.8573C760.507 33.0747 762.184 33.432 764.233 33.6514C766.283 33.8708 768.457 34.1483 769.064 34.268C773.324 35.1083 784.733 36.0499 793.908 36.3187C796.033 36.381 798.035 36.6001 798.356 36.8057C798.89 37.1475 815.795 38.4658 816.702 38.2363C816.918 38.1816 818.958 38.3107 821.236 38.5232C824.757 38.8516 833.748 39.5124 836.004 39.6086C836.82 39.6433 836.916 40.356 836.167 40.8187C835.63 41.1507 831.468 41.2274 827.702 40.9746C826.552 40.8974 825.41 40.5072 825.163 40.1076C824.829 39.5669 823.88 39.4767 821.457 39.755C819.665 39.9608 818.033 40.2279 817.83 40.3487C817.627 40.4695 817.083 40.1915 816.623 39.7309C816.162 39.2704 815.654 39.1062 815.493 39.3663C815.181 39.8708 804.038 39.6559 800.809 39.0831C799.746 38.8946 797.873 38.6891 796.646 38.6265C795.419 38.5639 793.866 38.2189 793.195 37.8598C792.22 37.3377 791.975 37.3546 791.975 37.9441C791.975 38.3779 791.237 38.7408 790.181 38.826C785.816 39.1783 779.706 39.1448 774.861 38.7423C771.376 38.4528 769.889 38.489 770.428 38.8504C772.604 40.3075 768.522 41.0262 762.163 40.3051C756.526 39.6659 755.518 39.6322 753.082 40.0019C751.825 40.1927 750.062 40.152 749.165 39.9114C746.801 39.2779 734.511 38.156 729.038 38.0742C726.457 38.0356 722.731 37.834 720.757 37.6265C718.783 37.4189 714.808 37.1215 711.924 36.9657C709.039 36.8098 702.207 36.317 696.741 35.8706C691.276 35.4242 683.146 34.8919 678.676 34.6879C671.39 34.3555 670.511 34.4124 670.195 35.2364C669.894 36.0201 668.934 36.1523 663.693 36.1323C660.311 36.1196 656.426 36.3103 655.059 36.5566L652.575 37.0045L656.715 37.6201C658.993 37.9586 661.725 38.2289 662.788 38.2205C663.851 38.2115 668.199 38.5901 672.45 39.0603C676.701 39.5305 684.775 40.1926 690.392 40.5316C696.01 40.8706 701.159 41.2668 701.834 41.4122C702.509 41.5575 708.099 41.9183 714.256 42.2139C725.321 42.7452 733.074 43.1787 738.976 43.5963C740.646 43.7144 746.375 44.0627 751.707 44.3703C757.039 44.6778 761.759 45.04 762.196 45.1752C762.634 45.3104 763.488 45.609 764.095 45.8386C764.703 46.0683 766.155 46.3251 767.322 46.4094C768.489 46.4938 769.732 46.9566 770.084 47.4381C770.593 48.1332 772.031 48.3428 777.071 48.4561C780.562 48.5346 783.667 48.7517 783.97 48.9383C784.274 49.125 786.386 49.4235 788.663 49.6017C799.549 50.4535 810.432 51.1454 815.439 51.3039C818.475 51.4001 824.935 51.9126 829.793 52.4429C834.651 52.9731 840.862 53.4894 843.595 53.5902C862.509 54.2877 877.616 55.1662 885.553 56.0301C888.286 56.3276 893.076 56.7307 896.198 56.926C899.32 57.1213 902.005 57.4935 902.165 57.753C902.326 58.0126 901.635 58.2451 900.63 58.2698C899.625 58.2947 898.102 58.3655 897.245 58.4278C896.387 58.49 895.578 58.3662 895.446 58.1526C895.314 57.939 894.288 58.0177 893.166 58.3275C892.027 58.6419 889.529 58.7297 887.512 58.5263C885.524 58.3258 874.953 58.0645 864.022 57.9456C853.091 57.8268 840.048 57.5691 835.038 57.3731C826.107 57.0236 823.577 57.2374 829.435 57.8463C831.06 58.0152 832.51 58.2736 832.657 58.4205C833.051 58.8142 831.032 59.7884 829.357 60.0127C827.406 60.274 826.79 60.9734 828.459 61.0333C829.193 61.0597 833.023 61.3127 836.97 61.5957C840.917 61.8787 848.681 62.257 854.223 62.4365C863.332 62.7314 864.298 62.8554 864.298 63.7303C864.298 64.9446 866.521 65.2317 879.915 65.748C885.316 65.9562 889.865 66.3361 890.023 66.5924C890.182 66.8486 891.4 67.0583 892.73 67.0583C897.266 67.0583 895.995 68.5827 890.423 69.8247C888.851 70.1752 886.739 70.4164 885.73 70.3604C879.007 69.9878 880.77 71.0748 888.314 71.9525C891.35 72.3058 895.574 72.7152 897.699 72.8623C899.825 73.0093 903.675 73.3773 906.256 73.6799C908.837 73.9826 914.055 74.3941 917.85 74.5943C922.524 74.8409 924.929 75.1919 925.303 75.6818C925.609 76.0826 927.579 76.5655 929.72 76.7647C931.845 76.9624 933.833 77.4275 934.137 77.7982C934.44 78.169 936.503 78.6399 938.721 78.8448C940.938 79.0496 943.31 79.5821 943.99 80.0281C944.77 80.5391 947.158 80.9288 950.448 81.0818C957.541 81.412 963.099 82.0341 963.407 82.5325C963.731 83.0564 958.896 83.8046 958.154 83.3456C957.849 83.1574 957.6 83.2389 957.6 83.5267C957.6 83.8145 958.47 84.2131 959.532 84.4124C961.631 84.806 962.027 85.4928 960.499 86.0854C958.695 86.7848 961.219 87.8925 966.895 88.8918C971.662 89.7311 974.675 90.7685 972.479 90.8145C970.415 90.8578 973.601 91.831 976.918 92.1704C978.887 92.3718 980.787 92.7763 981.14 93.0692C981.493 93.3621 983.353 93.8548 985.273 94.1641C990.609 95.0234 990.551 95.7139 985.108 96.1417C983.074 96.3015 981.215 96.7751 980.655 97.2756C979.871 97.9779 978.912 98.0619 975.411 97.735C968.292 97.0701 966.883 97.1995 965.814 98.6159C965.291 99.3091 964.971 100.05 965.102 100.262C965.233 100.475 967.015 100.822 969.062 101.035C971.108 101.248 973.031 101.616 973.334 101.855C973.638 102.093 975.067 102.464 976.509 102.679C980.467 103.268 979.655 104.048 975.083 104.048C972.856 104.048 970.846 104.234 970.616 104.462C970.386 104.69 968.071 104.876 965.47 104.876C962.182 104.876 960.67 105.086 960.505 105.566C960.343 106.039 960.934 106.257 962.385 106.259C963.549 106.26 965.371 106.49 966.433 106.769C967.496 107.047 970.469 107.432 973.039 107.624C975.609 107.816 977.992 108.206 978.334 108.49C978.677 108.774 979.102 108.862 979.278 108.685C979.455 108.508 980.178 108.57 980.884 108.822C981.875 109.176 981.287 109.361 978.303 109.633C974.782 109.953 970.766 110.759 968.642 111.571C967.294 112.086 969.39 112.653 975.681 113.473C978.793 113.879 981.34 114.358 981.34 114.538C981.34 114.718 982.954 114.763 984.928 114.637C987.812 114.454 988.517 114.567 988.517 115.216C988.517 116.216 986.769 117.853 985.713 117.841C985.064 117.834 985.071 117.74 985.756 117.298C986.46 116.842 986.437 116.761 985.6 116.754C985.059 116.749 984.469 117.131 984.288 117.602C984.008 118.332 983.01 118.416 977.542 118.17C970.691 117.862 969.007 118.228 970.27 119.748C972.384 122.296 981.004 125.027 986.93 125.027C990.511 125.027 992.381 125.696 992.381 126.979C992.381 127.62 991.497 127.785 988.102 127.774C985.749 127.767 982.83 127.499 981.615 127.179C980.401 126.86 974.678 126.485 968.898 126.348C958.677 126.105 958.387 126.128 958.306 127.208C958.226 128.269 958.899 129.034 960.084 129.226C960.388 129.275 962.769 129.717 965.377 130.208C973.91 131.816 981.486 132.796 989.241 133.293C996.425 133.754 998.876 134.387 998.133 135.588C997.964 135.862 997.588 135.94 997.298 135.76C997.007 135.581 996.838 135.763 996.922 136.165C997.006 136.57 996.644 136.863 996.113 136.821C995.585 136.779 995.272 136.938 995.418 137.174C995.564 137.411 994.84 137.762 993.809 137.955C991.581 138.373 991.053 139.368 992.194 140.998C992.802 141.866 992.867 142.383 992.433 142.906C991.722 143.763 992.187 144.35 993.577 144.35C994.134 144.35 994.589 144.454 994.589 144.581C994.589 144.708 994.754 145.241 994.955 145.767C995.292 146.644 994.921 146.692 990.401 146.355C987.694 146.154 984.548 145.842 983.409 145.661C981.762 145.4 981.339 145.509 981.339 146.194C981.339 146.668 980.939 147.279 980.449 147.553C979.185 148.261 979.944 151.442 981.529 152.081C982.662 152.538 982.667 152.564 981.615 152.635C980.511 152.709 980.511 152.709 981.615 153.183C982.692 153.646 981.188 153.844 975.542 153.982C973.187 154.039 971.402 154.782 971.402 155.705C971.402 156.198 970.83 156.498 969.883 156.503C969.048 156.508 967.8 156.662 967.11 156.847C965.933 157.162 965.916 157.229 966.834 157.926C967.372 158.334 968.493 158.677 969.323 158.686C970.154 158.696 972.473 159.573 974.476 160.636C976.496 161.708 978.922 162.568 979.924 162.568C983.269 162.568 988.488 163.271 988.231 163.687C988.091 163.914 988.398 164.066 988.915 164.024C989.431 163.983 989.943 164.377 990.051 164.9C990.302 166.115 987.042 168.209 985.361 167.913C984.688 167.795 984.048 167.969 983.937 168.3C983.677 169.081 977.234 169.302 974.657 168.618C973.562 168.328 967.91 168.023 962.097 167.94C952.268 167.801 949.37 168.083 953.045 168.821C953.88 168.988 955.681 169.378 957.047 169.688C958.414 169.997 960.588 170.26 961.878 170.274C963.169 170.287 964.225 170.546 964.225 170.85C964.225 171.153 964.614 171.402 965.089 171.402C965.564 171.402 966.463 171.675 967.087 172.008C968.208 172.608 968.206 172.622 966.912 173.267C964.648 174.396 965.349 175.461 969.156 176.671C971.108 177.292 972.823 178.162 972.965 178.604C973.107 179.045 973.443 179.551 973.711 179.727C974.556 180.281 973.545 181.985 972.589 181.618C972.106 181.432 971.864 181.433 972.05 181.62C972.236 181.806 971.762 182.585 970.997 183.35C969.99 184.357 968.952 184.767 967.243 184.833C965.943 184.883 964.98 185.087 965.103 185.286C965.226 185.484 962.949 185.525 960.043 185.376C955.818 185.16 954.573 185.273 953.833 185.943C952.805 186.872 947.383 187.255 944.555 186.598C943.475 186.347 942.686 186.425 942.452 186.805C942.245 187.139 941.49 187.412 940.774 187.412C939.113 187.412 937.725 187.942 937.725 188.576C937.725 188.847 938.085 189.069 938.525 189.069C938.966 189.069 939.537 189.445 939.794 189.906C940.085 190.425 942.243 191.128 945.481 191.758C951.859 192.999 956.555 194.896 956.111 196.053C955.94 196.498 955.447 196.726 955.015 196.56C954.583 196.394 954.368 196.483 954.538 196.757C954.708 197.032 954.195 198.03 953.399 198.976C952.334 200.243 951.659 200.604 950.842 200.344C950.227 200.149 949.871 200.216 950.043 200.495C950.214 200.771 949.49 201.022 948.433 201.052C947.377 201.082 944.77 201.534 942.638 202.056L938.763 203.006L939.996 204.318C940.675 205.04 941.459 205.631 941.74 205.631C942.021 205.631 943.103 206.036 944.145 206.53C945.962 207.392 946.005 207.482 945.201 208.71C944.672 209.517 944.567 210.117 944.917 210.333C945.222 210.522 945.312 210.934 945.118 211.249C944.889 211.619 944.592 211.556 944.28 211.073C943.967 210.587 943.652 210.522 943.383 210.887C943.156 211.197 942.224 211.81 941.313 212.249L939.657 213.048L941.404 213.236C943.296 213.439 944.307 214.855 942.936 215.382C942.473 215.559 941.956 215.568 941.788 215.4C941.621 215.232 940.656 215.559 939.646 216.127C938.635 216.695 936.864 217.336 935.71 217.553C934.556 217.769 933.277 218.281 932.868 218.69C931.9 219.658 931.521 219.637 926.391 218.325C921.787 217.147 920.489 217.257 918.6 218.984C917.535 219.958 917.105 220.006 914.22 219.472C910.437 218.773 903.308 218.683 903.714 219.34C903.87 219.593 905.81 220.109 908.025 220.486C913.669 221.449 914.304 221.655 913.377 222.228C911.771 223.221 918.964 225.564 925.994 226.339C927.892 226.548 929.566 226.914 929.713 227.152C929.86 227.39 929.459 228.247 928.822 229.057C927.753 230.416 927.732 230.604 928.554 231.511C929.043 232.052 929.443 232.63 929.443 232.796C929.443 233.478 920.095 232.496 917.021 231.491C912.602 230.046 903.654 228.991 902.827 229.818C902.39 230.256 902.386 230.631 902.813 231.146C903.391 231.842 904.276 232.139 911.639 234.112C913.935 234.728 915.089 235.315 915.089 235.868C915.089 236.568 914.438 236.641 910.993 236.329C908.368 236.091 906.77 236.163 906.543 236.529C906.349 236.843 906.495 237.1 906.867 237.1C907.239 237.1 907.415 237.228 907.258 237.385C906.888 237.756 899.069 236.115 898.292 235.504C897.68 235.023 889.619 233.782 887.899 233.903C887.368 233.941 886.933 234.282 886.933 234.662C886.933 235.042 886.804 235.688 886.647 236.097C886.376 236.804 893.118 238.234 904.736 239.933C906.482 240.188 908.81 240.773 909.911 241.233C911.011 241.692 912.688 242.07 913.638 242.072C916.139 242.077 919.73 243.169 919.15 243.75C918.881 244.018 915.519 244.309 911.678 244.396C907.838 244.482 904.737 244.595 904.787 244.647C904.837 244.698 906.106 245.222 907.607 245.812C910.22 246.838 910.282 246.912 909.088 247.551C908.153 248.051 907.154 248.07 905.089 247.627C901.729 246.907 901.287 246.897 901.287 247.545C901.287 247.825 902.029 248.217 902.937 248.416C905.955 249.079 905.301 249.798 901.68 249.798C899.573 249.798 897.442 250.148 896.407 250.664C895.36 251.187 894.185 251.377 893.448 251.143C891.873 250.643 865.952 250.452 866.255 250.943C866.897 251.982 859.655 251.977 853.475 250.933C840.96 248.82 830.312 247.619 823.443 247.546C819.648 247.505 813.934 247.131 810.746 246.714C807.557 246.296 801.877 245.699 798.123 245.386C794.37 245.073 791.14 244.721 790.946 244.604C790.753 244.487 788.731 244.233 786.454 244.039C784.177 243.845 781.444 243.582 780.381 243.453C778.169 243.186 768.096 242.624 760.782 242.361C755.492 242.17 747.452 241.662 742.011 241.175C740.19 241.012 733.109 240.772 726.277 240.643C719.445 240.513 711.371 240.204 708.334 239.955C705.298 239.706 696.9 239.527 689.673 239.557C678.742 239.603 676.443 239.749 676.009 240.426C675.565 241.116 675.41 241.123 674.989 240.469C674.659 239.956 673.948 239.808 672.861 240.025C671.962 240.205 670.959 240.081 670.626 239.747C670.293 239.415 669.201 239.091 668.199 239.027C667.196 238.963 665.879 238.763 665.272 238.583C661.963 237.604 658.516 237.319 657.128 237.91C656.013 238.385 653.23 237.824 653.615 237.202C653.756 236.973 651.096 236.719 647.702 236.637C638.564 236.417 637.617 236.317 636.583 235.459C635.742 234.761 635.658 234.793 635.824 235.749C635.951 236.477 635.745 236.76 635.184 236.627C634.728 236.519 633.796 236.426 633.113 236.42C632.43 236.414 631.871 236.218 631.871 235.985C631.871 235.752 631.471 235.407 630.981 235.22C630.335 234.972 630.183 235.115 630.423 235.741C630.651 236.336 630.542 236.469 630.07 236.17C629.694 235.931 627.027 235.657 624.142 235.562C618.075 235.361 618.977 235.364 590.465 235.465C578.471 235.507 567.122 235.362 565.244 235.143C563.367 234.924 561.413 234.904 560.902 235.1C559.963 235.461 541.928 236.173 536.387 236.068C532.053 235.986 527.139 238.534 529.872 239.445C530.28 239.581 529.998 239.971 529.182 240.402C528.424 240.802 527.666 241.338 527.497 241.595C526.888 242.521 522.2 243.038 520.869 242.326C520.03 241.877 517.807 241.715 514.311 241.85C511.403 241.962 501.849 242.185 493.081 242.345C484.313 242.505 476.536 242.787 475.799 242.973C475.061 243.158 471.927 243.347 468.834 243.393C465.741 243.44 462.713 243.757 462.106 244.099C461.019 244.709 455.899 245.712 455.042 245.481C453.986 245.198 452.024 245.269 450.236 245.656C449.173 245.886 447.807 246.033 447.2 245.982C446.592 245.931 445.599 245.846 444.991 245.792C444.384 245.738 441.527 245.986 438.642 246.343C435.758 246.699 432.323 246.986 431.011 246.98C429.698 246.974 428.332 247.203 427.974 247.491C427.617 247.778 426.517 248.186 425.53 248.397C424.062 248.711 423.736 248.611 423.736 247.846C423.736 247.018 423.279 246.956 419.733 247.303C417.532 247.517 411.756 247.75 406.898 247.82C402.039 247.89 396.726 248.24 395.09 248.596C393.455 248.953 391.996 249.245 391.848 249.245C391.701 249.245 391.889 249.617 392.267 250.073C392.645 250.528 393.794 250.901 394.819 250.901C395.845 250.901 396.684 251.005 396.684 251.132C396.684 251.259 396.835 251.756 397.019 252.236C397.479 253.434 395.924 253.375 394.698 252.148C394.003 251.453 393.673 251.377 393.507 251.875C393.381 252.254 393.05 252.424 392.772 252.252C392.495 252.08 392.267 252.141 392.267 252.387C392.267 252.632 391.708 252.864 391.025 252.901C390.342 252.938 386.553 253.25 382.606 253.594C378.659 253.937 370.709 254.318 364.939 254.44C359.17 254.561 353.829 254.797 353.07 254.963C350.498 255.527 336.356 256.836 328.778 257.21C314.736 257.905 304.09 259.913 301.895 262.282C301.209 263.023 299.999 263.621 299.13 263.649C291.986 263.881 282.065 264.625 277.71 265.255C275.889 265.519 272.693 265.887 270.608 266.073C268.524 266.26 265.571 266.648 264.046 266.938C262.521 267.227 261.183 267.464 261.073 267.464C260.962 267.464 260.872 266.828 260.872 266.051L260.872 266.052ZM260.872 261.028C260.872 260.425 260.628 260.379 259.789 260.828C259.141 261.175 258.834 261.744 259.025 262.242C259.271 262.885 259.52 262.931 260.108 262.442C260.528 262.094 260.872 261.457 260.872 261.028ZM353.898 252.817C356.058 252.042 356.003 252.031 351.414 252.3C340.903 252.917 337.612 253.229 337.612 253.609C337.612 254.33 351.575 253.65 353.898 252.817ZM97.4559 246.15C97.4559 246.031 97.0832 245.933 96.6278 245.933C96.1723 245.933 95.7996 246.174 95.7996 246.468C95.7996 246.762 96.1723 246.86 96.6278 246.685C97.0832 246.51 97.4559 246.27 97.4559 246.15ZM137.482 244.277C137.675 243.965 137.222 243.725 136.443 243.725C135.684 243.725 134.909 243.973 134.721 244.277C134.529 244.589 134.981 244.829 135.76 244.829C136.52 244.829 137.294 244.581 137.482 244.277ZM111.258 241.452C111.258 240.883 110.597 240.829 109.371 241.3C107.985 241.831 108.357 242.494 109.878 242.204C110.637 242.059 111.258 241.72 111.258 241.452ZM423.646 241.362C425.53 240.838 425.788 240.636 424.86 240.416C423.387 240.067 405.822 240.805 396.408 241.611C393.85 241.83 413.605 242.365 417.663 242.187C419.637 242.1 422.329 241.729 423.646 241.362ZM442.783 239.663C443.39 239.52 442.272 239.422 440.299 239.447C435.588 239.506 433.723 240.013 436.71 240.423C437.925 240.59 439.54 240.546 440.299 240.325C441.058 240.105 442.176 239.807 442.783 239.663V239.663ZM90.462 239.825C91.5988 239.792 91.5914 239.763 90.3148 239.253C88.8096 238.652 87.5184 238.952 87.5184 239.902C87.5184 240.248 87.9105 240.38 88.3917 240.195C88.872 240.011 89.8036 239.845 90.462 239.825ZM451.077 239.204C451.224 239.056 450.242 238.894 448.893 238.843C447.544 238.792 446.269 239.028 446.059 239.367C445.791 239.801 446.44 239.908 448.243 239.728C449.654 239.588 450.929 239.352 451.077 239.204V239.204ZM882.792 232.683C883.004 232.341 882.123 232.156 880.479 232.197C878.122 232.255 878.01 232.309 879.48 232.683C881.896 233.298 882.413 233.298 882.792 232.683ZM31.8617 224.577C31.4631 224.418 30.987 224.437 30.8035 224.621C30.62 224.804 30.9461 224.935 31.5281 224.911C32.1713 224.884 32.3021 224.753 31.8617 224.577V224.577ZM38.3831 223.85C39.4927 223.495 39.5468 223.405 38.6592 223.392C38.0519 223.383 37.0581 223.589 36.4508 223.85C35.044 224.455 36.4954 224.455 38.3831 223.85ZM45.7911 224.067C46.2714 223.883 46.6644 223.285 46.6644 222.739C46.6644 221.894 46.3171 221.79 44.318 222.04C41.7812 222.357 40.1257 223.298 42.1047 223.298C42.7548 223.298 43.4402 223.546 43.6279 223.85C44.0206 224.485 44.5596 224.54 45.7911 224.067V224.067ZM942.693 214.465C942.693 214.161 942.259 213.916 941.727 213.921C940.902 213.928 940.881 214.007 941.589 214.465C942.631 215.138 942.693 215.138 942.693 214.465V214.465ZM59.4657 192.004C59.0672 191.845 58.591 191.864 58.4076 192.048C58.2241 192.231 58.5502 192.362 59.1322 192.338C59.7753 192.311 59.9062 192.18 59.4657 192.004V192.004ZM54.9456 190.393C54.9456 189.494 53.4101 189.392 51.393 190.159C49.197 190.994 49.7182 191.582 52.4612 191.364C54.1279 191.231 54.9456 190.912 54.9456 190.393ZM65.2003 190.792C64.649 189.9 62.6747 189.672 62.6747 190.501C62.6747 190.966 63.2415 191.277 64.0875 191.277C64.8645 191.277 65.3653 191.059 65.2003 190.792V190.792ZM61.0185 190.173C61.6345 189.775 61.3163 189.636 59.7763 189.629C58.6376 189.624 57.706 189.869 57.706 190.173C57.706 190.876 59.9304 190.876 61.0185 190.173ZM981.339 125.579C981.339 125.276 981.091 125.027 980.787 125.027C980.483 125.027 980.235 125.276 980.235 125.579C980.235 125.883 980.483 126.132 980.787 126.132C981.091 126.132 981.339 125.883 981.339 125.579ZM985.342 115.276C984.962 115.123 984.341 115.123 983.962 115.276C983.582 115.429 983.893 115.555 984.652 115.555C985.411 115.555 985.721 115.429 985.342 115.276ZM977.06 108.627C976.377 108.496 975.259 108.496 974.576 108.627C973.893 108.759 974.452 108.867 975.818 108.867C977.185 108.867 977.744 108.759 977.06 108.627V108.627ZM951.527 104.171C951.527 103.934 949.477 103.446 946.972 103.086C944.467 102.726 941.819 102.259 941.089 102.049C940.264 101.811 939.888 101.873 940.098 102.212C940.284 102.513 942.62 103.075 945.291 103.461C947.961 103.847 950.395 104.242 950.699 104.338C951.002 104.434 951.313 104.533 951.389 104.557C951.465 104.581 951.527 104.407 951.527 104.171V104.171ZM146.315 99.0795C147.301 98.6558 147.26 98.6009 145.934 98.5663C145.117 98.5449 144.294 98.7758 144.107 99.0795C143.699 99.7386 144.781 99.7386 146.315 99.0795V99.0795ZM947.662 95.845C947.662 95.5842 945.169 95.0873 942.121 94.7408C935.258 93.9603 934.025 93.9446 934.727 94.6463C935.021 94.9408 937.99 95.403 941.324 95.6733C944.658 95.9436 947.448 96.1995 947.524 96.242C947.6 96.2845 947.662 96.1058 947.662 95.845V95.845ZM115.342 89.234C115.498 88.981 115.264 88.774 114.822 88.774C114.38 88.774 114.018 88.981 114.018 89.234C114.018 89.4871 114.252 89.6941 114.538 89.6941C114.824 89.6941 115.185 89.4871 115.342 89.234ZM189.205 88.2128C188.806 88.0533 188.33 88.0729 188.147 88.2563C187.963 88.4398 188.289 88.5703 188.871 88.5463C189.515 88.5197 189.645 88.389 189.205 88.2127V88.2128ZM103.529 87.4858C103.529 87.1821 103.094 86.9375 102.563 86.9421C101.737 86.9491 101.717 87.0283 102.425 87.4858C103.467 88.1591 103.529 88.1591 103.529 87.4858V87.4858ZM105.737 86.6251C105.737 86.4912 105.489 86.3816 105.185 86.3816C104.881 86.3816 104.633 86.6447 104.633 86.9663C104.633 87.2879 104.881 87.3974 105.185 87.2097C105.489 87.0221 105.737 86.759 105.737 86.6251V86.6251ZM137.206 82.7811C137.965 82.5689 140.325 82.1879 142.451 81.9345C144.576 81.6811 147.185 81.2111 148.247 80.8902C149.31 80.5692 150.18 80.3274 150.18 80.3528C150.18 80.5644 153.961 79.3831 155.839 78.585C158.687 77.3742 158.867 76.4442 156.253 76.4442C154.903 76.4442 154.32 76.1944 154.32 75.616C154.32 74.767 156.791 74.4314 160.893 74.7233C162.68 74.8504 167.778 73.8989 168.945 73.2204C169.817 72.7137 167.031 72.1423 163.396 72.0826C161.032 72.0435 159.017 72.4323 156.529 73.4077C154.592 74.1668 152.495 74.7917 151.869 74.7964C150.963 74.8034 150.895 74.908 151.534 75.312C151.975 75.591 152.533 75.6967 152.776 75.547C153.018 75.3973 153.216 75.5099 153.216 75.7968C153.216 76.2912 152.008 76.6402 147.791 77.3638C146.781 77.5372 145.82 78.0286 145.656 78.4559C145.412 79.0911 145.2 79.1043 144.491 78.5286C143.765 77.9388 143.677 77.9657 143.949 78.6942C144.187 79.3307 143.955 79.5394 143.086 79.472C142.433 79.4213 141.074 79.6052 140.067 79.8806C138.796 80.2279 137.992 80.1803 137.444 79.7254C137 79.3565 136.654 79.3077 136.654 79.6141C136.654 80.2231 132.447 81.965 130.976 81.965C130.455 81.965 130.029 82.3046 130.029 82.7198C130.029 83.2817 130.769 83.4353 132.927 83.3208C134.521 83.2362 136.447 82.9934 137.206 82.7812V82.7811ZM159.917 62.7592C159.518 62.6265 158.93 62.7802 158.609 63.1012C158.199 63.5109 158.415 63.5827 159.333 63.3426C160.08 63.1473 160.33 62.8971 159.917 62.7592ZM826.755 60.5718C826.755 60.3441 826 60.105 825.079 60.0404C824.12 59.9732 823.544 60.1503 823.732 60.4545C824.117 61.0772 826.757 61.1797 826.755 60.5718ZM161.497 57.0938L162.878 57.0513L161.59 56.5352C160.135 55.952 157.633 56.4012 157.633 57.2455C157.633 57.5533 158.188 57.6533 158.875 57.4692C159.558 57.2861 160.738 57.1172 161.497 57.0938V57.0938ZM822.339 57.2133C822.339 56.9603 821.967 56.7532 821.511 56.7532C821.056 56.7532 820.683 56.9603 820.683 57.2133C820.683 57.4663 821.056 57.6734 821.511 57.6734C821.967 57.6734 822.339 57.4663 822.339 57.2133ZM824.651 57.2962C824.253 57.1367 823.777 57.1564 823.593 57.3397C823.41 57.5232 823.736 57.6537 824.318 57.6297C824.961 57.6033 825.092 57.4724 824.651 57.2962V57.2962ZM170.986 56.192C170.588 56.0325 170.112 56.0522 169.928 56.2356C169.745 56.419 170.071 56.5495 170.653 56.5255C171.296 56.4991 171.427 56.3682 170.986 56.192V56.192ZM109.05 55.465C109.05 55.1614 108.801 54.913 108.498 54.913C108.194 54.913 107.945 55.1614 107.945 55.465C107.945 55.7687 108.194 56.0171 108.498 56.0171C108.801 56.0171 109.05 55.7687 109.05 55.465ZM123.404 54.0172C123.404 53.3987 122.367 53.941 122.07 54.715C121.779 55.4727 121.86 55.5068 122.563 54.9234C123.025 54.5397 123.404 54.1318 123.404 54.0172ZM128.925 54.0848C128.925 53.6294 128.827 53.2567 128.708 53.2567C128.588 53.2567 128.348 53.6294 128.173 54.0848C127.998 54.5403 128.096 54.913 128.39 54.913C128.684 54.913 128.925 54.5403 128.925 54.0848ZM851.703 35.213C851.305 35.0535 850.829 35.0731 850.645 35.2565C850.462 35.4399 850.788 35.5704 851.37 35.5464C852.013 35.52 852.144 35.3891 851.703 35.2129V35.213ZM343.385 24.0344C343.559 23.7518 343.476 23.3805 343.199 23.2095C342.922 23.0384 342.554 23.2697 342.379 23.7234C342.036 24.6179 342.866 24.8745 343.385 24.0344ZM81.3359 260.977C81.0182 260.598 80.975 260.28 81.2399 260.271C81.5048 260.262 81.257 259.984 80.6892 259.654C79.2326 258.808 80.523 258.082 83.3778 258.142C84.8688 258.174 85.2275 258.306 84.482 258.548C83.4301 258.89 82.6459 260.296 83.5158 260.28C85.1368 260.25 86.3075 259.529 86.0549 258.715C85.8083 257.92 85.8742 257.927 86.5681 258.769C87.511 259.914 91.7122 260.124 92.0753 259.045C92.2598 258.497 92.4843 258.501 93.1658 259.063C94.2406 259.95 94.8748 262.105 93.9619 261.768C93.6063 261.637 93.3958 261.195 93.4942 260.786C93.6192 260.266 93.3658 260.32 92.6513 260.967C91.8354 261.705 90.6512 261.869 86.7716 261.78C83.6866 261.709 81.7028 261.416 81.3359 260.978L81.3359 260.977ZM73.7573 259.761C73.0219 259.306 73.3755 258.079 74.242 258.079C74.8717 258.079 75.4246 259.638 74.9081 259.957C74.6791 260.099 74.1613 260.01 73.7573 259.761ZM85.4382 255.319C84.8276 254.341 84.8914 254.205 85.9955 254.13C86.6813 254.084 87.615 254.006 88.0705 253.956C89.5432 253.796 89.8203 254.3 88.849 255.373C87.622 256.729 86.306 256.708 85.4382 255.319V255.319ZM419.872 251.211C419.872 251.077 420.12 250.814 420.424 250.626C420.727 250.438 420.976 250.548 420.976 250.869C420.976 251.191 420.727 251.454 420.424 251.454C420.12 251.454 419.872 251.344 419.872 251.211ZM426.349 250.833C426.724 250.456 427.169 250.287 427.339 250.456C427.509 250.626 427.203 250.935 426.659 251.142C425.872 251.442 425.808 251.379 426.349 250.833ZM130.029 249.313C130.029 249.047 130.412 248.511 130.88 248.122C131.542 247.573 131.879 247.563 132.394 248.078C132.909 248.592 132.873 248.855 132.232 249.26C131.191 249.918 130.029 249.946 130.029 249.313V249.313ZM753.329 244.277C753.329 243.973 753.687 243.725 754.125 243.725C754.562 243.725 755.074 243.973 755.262 244.277C755.449 244.581 755.091 244.829 754.466 244.829C753.841 244.829 753.329 244.581 753.329 244.277ZM743.944 243.691C743.944 243.062 745.427 242.998 745.805 243.61C745.954 243.851 745.596 244.084 745.01 244.128C744.423 244.172 743.944 243.975 743.944 243.691ZM196.441 242.8C195.944 241.505 196.701 241.315 198.609 242.256C199.605 242.746 200.171 243.185 199.867 243.231C197.54 243.581 196.7 243.475 196.441 242.8V242.8ZM673.829 241.517C673.829 241.213 673.939 240.964 674.073 240.964C674.207 240.964 674.47 241.213 674.658 241.517C674.845 241.82 674.736 242.069 674.414 242.069C674.093 242.069 673.829 241.82 673.829 241.517ZM665.87 241.039C665.632 240.654 665.587 240.19 665.769 240.008C666.263 239.514 666.802 240.24 666.535 241.041C666.348 241.602 666.218 241.601 665.87 241.038V241.039ZM667.895 241.151C666.764 240.695 667.112 239.94 668.309 240.252C668.916 240.411 669.413 240.761 669.413 241.029C669.413 241.555 668.982 241.59 667.895 241.151ZM932.572 238.388C931.937 237.753 932.17 237.1 933.032 237.1C933.487 237.1 933.86 237.473 933.86 237.928C933.86 238.79 933.207 239.023 932.572 238.388ZM247.417 235.006C247.268 234.766 247.632 234.532 248.224 234.487C248.817 234.443 249.158 234.64 248.982 234.925C248.591 235.558 247.784 235.6 247.417 235.006ZM252.393 234.058C252.567 233.605 253.117 233.216 253.616 233.193C254.115 233.169 255.641 233.038 257.008 232.902C258.799 232.722 259.261 232.809 258.664 233.212C257.981 233.673 257.973 233.772 258.618 233.779C259.048 233.784 259.245 233.942 259.056 234.131C258.867 234.321 257.219 234.567 255.395 234.678C252.631 234.847 252.13 234.743 252.393 234.058V234.058ZM27.089 232.721C26.6807 232.061 27.7193 231.406 28.4547 231.861C29.0721 232.242 28.6667 233.235 27.8936 233.235C27.6258 233.235 27.2637 233.004 27.089 232.721ZM32.3102 218.362C32.3102 218.076 32.5558 217.69 32.856 217.505C33.169 217.311 33.2615 217.533 33.073 218.024C32.7059 218.981 32.3102 219.156 32.3102 218.362V218.362ZM36.3588 218.077C36.3588 217.635 36.5699 217.404 36.8279 217.563C37.0859 217.723 37.154 218.085 36.9794 218.367C36.5329 219.09 36.3588 219.008 36.3588 218.077ZM998.454 146.006C997.998 145.712 997.874 145.471 998.178 145.471C998.481 145.471 999.102 145.712 999.558 146.006C1000.01 146.301 1000.14 146.542 999.834 146.542C999.53 146.542 998.909 146.301 998.454 146.006ZM91.383 105.035C91.383 104.796 91.8799 104.6 92.4872 104.6C93.0944 104.6 93.5913 104.833 93.5913 105.118C93.5913 105.403 93.0944 105.598 92.4872 105.553C91.8799 105.507 91.383 105.274 91.383 105.035ZM114.502 96.927L113.208 95.8787L116.511 95.4401C118.329 95.1989 121.119 94.9874 122.713 94.9702C124.307 94.9529 125.611 94.7698 125.611 94.5633C125.612 94.1335 128.9 94.9895 129.414 95.5532C129.6 95.758 128.986 95.7801 128.05 95.6023C127.001 95.4032 125.728 95.6063 124.737 96.1296C123.852 96.5975 121.823 97.0043 120.229 97.0337C118.635 97.0631 117.331 97.287 117.331 97.5312C117.331 98.3226 115.83 98.002 114.502 96.927V96.927ZM107.543 97.0896C107.726 96.9062 108.202 96.8866 108.601 97.0461C109.041 97.2223 108.911 97.3532 108.267 97.3797C107.686 97.4036 107.359 97.2731 107.543 97.0897V97.0896ZM97.4995 89.464C97.4756 88.882 97.606 88.5559 97.7894 88.7394C97.9729 88.9228 97.9925 89.399 97.833 89.7975C97.6568 90.238 97.526 90.1071 97.4995 89.464H97.4995ZM112.577 84.8238C112.731 84.5743 112.349 83.9349 111.728 83.4028C110.616 82.451 110.653 82.4095 114.014 80.8199C118.062 78.9054 118.435 78.8623 118.435 80.3086C118.435 80.9889 118.064 81.4161 117.469 81.4212C116.686 81.4282 116.651 81.5234 117.284 81.9241C117.713 82.196 118.521 82.3307 119.078 82.2234C119.635 82.1161 120.091 82.2814 120.091 82.5909C120.091 82.9004 119.284 83.1094 118.297 83.0554C117.31 83.0014 116.006 82.9862 115.399 83.0217C114.479 83.0753 114.433 83.1754 115.123 83.6212C115.83 84.0786 115.81 84.1576 114.984 84.1649C114.453 84.1699 114.018 84.4218 114.018 84.7254C114.018 85.0291 113.631 85.2775 113.158 85.2775C112.684 85.2775 112.423 85.0734 112.577 84.8239V84.8238ZM119.636 80.3688C119.081 80.0258 119.103 79.7955 119.74 79.2669C120.633 78.5255 121.345 79.1731 120.73 80.1678C120.511 80.5225 120.029 80.6111 119.636 80.3688V80.3688ZM100.492 57.1212C100.305 56.8175 100.524 56.5691 100.979 56.5691C101.435 56.5691 101.961 56.8175 102.149 57.1212C102.336 57.4248 102.117 57.6733 101.662 57.6733C101.206 57.6733 100.68 57.4248 100.492 57.1212ZM111.8 54.6494C112.595 53.6915 112.914 53.5918 112.914 54.3017C112.914 54.5729 112.506 54.9512 112.008 55.1425C111.25 55.4332 111.216 55.3525 111.8 54.6494ZM892.057 45.7401C892.704 45.0929 896.239 44.5858 896.952 45.0377C897.363 45.2978 897.45 45.5391 897.147 45.5738C894.175 45.9145 891.805 45.9919 892.057 45.7401V45.7401ZM888.706 45.059C888.247 44.7678 888.59 44.6074 889.672 44.6074C890.595 44.6074 891.35 44.8144 891.35 45.0674C891.35 45.655 889.636 45.6495 888.706 45.0584V45.059ZM874.511 44.3541C872.148 43.8251 866.41 43.4456 855.69 43.1094C852.019 42.9942 848.484 42.6157 847.835 42.2683C847.129 41.8903 844.655 41.6979 841.674 41.7892C838.935 41.8732 836.694 41.8854 836.694 41.8161C836.694 41.624 839.906 40.0063 840.287 40.0063C840.472 40.0063 840.47 40.2547 840.282 40.5583C840.083 40.8804 840.645 41.1104 841.63 41.1104C842.559 41.1104 843.319 40.862 843.319 40.5583C843.319 40.2547 843.582 40.0063 843.903 40.0063C844.225 40.0063 844.302 40.3168 844.074 40.6963C843.767 41.2066 843.866 41.2408 844.455 40.8274C844.893 40.5198 845.748 40.2968 846.355 40.3316C846.963 40.3663 848.778 40.4317 850.39 40.4767C852.002 40.5216 853.206 40.7446 853.065 40.9724C852.924 41.2001 854.338 41.3501 856.207 41.3056C858.076 41.2607 860.04 41.4563 860.571 41.7391C861.216 42.0824 861.537 42.0526 861.537 41.6494C861.537 41.3172 861.838 41.2309 862.205 41.4578C862.572 41.6847 864.994 41.938 867.588 42.0209C870.181 42.1037 872.303 42.2009 872.303 42.2369C872.303 42.273 873.545 42.3828 875.064 42.4812C876.582 42.5796 877.886 42.7151 877.962 42.7824C878.091 42.8972 878.66 43.0645 879.618 43.2694C880.057 43.3634 877.466 44.9668 876.996 44.892C876.844 44.8676 875.726 44.6257 874.511 44.3538L874.511 44.3541ZM852.152 41.5939C852.152 41.3282 851.67 41.1108 851.08 41.1108C850.491 41.1108 849.874 41.3282 849.71 41.5939C849.546 41.8596 850.028 42.0769 850.782 42.0769C851.535 42.0769 852.152 41.8596 852.152 41.5939ZM881.683 39.9976C881.492 39.6891 881.105 39.5795 880.822 39.7542C880.539 39.9289 880.308 39.8234 880.308 39.5197C880.308 38.4508 881.199 38.4339 881.858 39.4904C882.225 40.0781 882.414 40.5589 882.278 40.5589C882.141 40.5589 881.873 40.3064 881.683 39.9978V39.9976ZM869.864 37.8444C869.283 37.2623 868.691 36.9014 868.55 37.0422C868.41 37.183 867.085 37.3815 865.606 37.4833C863.045 37.6596 859.869 36.5223 860.674 35.717C861.319 35.0725 865.131 35.2233 865.964 35.9263C866.817 36.6461 868.37 36.67 869.066 35.9737C869.652 35.3879 872.468 35.5163 872.858 36.1467C873.388 37.0048 872.6 38.9022 871.714 38.9022C871.279 38.9022 870.447 38.426 869.864 37.844V37.8444ZM875.563 38.2651C875.328 37.8846 875.41 37.777 875.768 37.998C876.098 38.2018 876.523 38.1159 876.714 37.8073C877.228 36.9749 877.916 37.1277 877.916 38.0743C877.916 39.0468 876.135 39.1912 875.563 38.2651V38.2651ZM230.105 34.1523C230.289 33.9688 230.765 33.9492 231.163 34.1088C231.604 34.285 231.473 34.4159 230.83 34.4424C230.248 34.4663 229.922 34.3359 230.105 34.1524V34.1523ZM341.476 18.4754C341.476 18.1718 341.586 17.9234 341.72 17.9234C341.853 17.9234 342.117 18.1718 342.304 18.4754C342.492 18.7791 342.382 19.0275 342.061 19.0275C341.739 19.0275 341.476 18.7791 341.476 18.4754ZM354.35 18.5313C353.458 17.8765 353.672 16.9356 354.653 17.1922C355.279 17.3559 355.68 17.1307 355.738 16.5836C355.789 16.1059 355.872 15.3424 355.922 14.8869C355.973 14.4315 356.47 14.0278 357.026 13.9898C357.583 13.9517 358.225 13.8695 358.453 13.8068C358.68 13.744 359.612 13.4925 360.523 13.2476C362.549 12.7032 363.649 11.8899 363.245 11.2359C363.078 10.9666 363.433 10.7464 364.033 10.7464C364.633 10.7464 365.25 11.0569 365.404 11.4365C365.598 11.916 365.823 11.9457 366.14 11.5342C366.95 10.4816 368.641 10.153 369.532 10.8749C370.248 11.4544 370.315 11.4399 369.924 10.7905C369.565 10.1951 369.683 10.0955 370.415 10.3765C370.945 10.5799 371.714 10.7463 372.125 10.7463C372.535 10.7463 373.02 11.2177 373.203 11.7938C373.417 12.4672 373.89 12.7485 374.528 12.5816C375.937 12.2131 375.792 10.848 374.371 11.1095C373.248 11.316 373.247 11.3085 374.325 10.7964C374.932 10.5079 376.27 10.2544 377.298 10.2331C378.326 10.2116 380.686 9.95059 382.543 9.65274C387.355 8.88091 399.453 7.52833 404.966 7.1459C407.546 6.9669 410.776 6.72194 412.143 6.60153C415.021 6.34792 420.704 5.9442 428.153 5.46422C431.038 5.27833 435.013 4.98941 436.986 4.82222C441.73 4.42037 449.197 4.39039 450.236 4.76922C450.692 4.93523 452.12 5.26178 453.411 5.49499C454.701 5.72814 455.757 6.10173 455.757 6.32516C455.757 6.54855 455.143 7.34558 454.392 8.09622C453.281 9.2074 452.511 9.45101 450.249 9.40677C448.597 9.37407 447.547 9.57908 447.657 9.9115C447.76 10.2189 449.756 10.4909 452.094 10.5159C455.766 10.555 458.211 11.2693 457.376 12.0585C457.003 12.4117 449.684 12.7606 449.685 12.4252C449.686 12.261 448.009 12.2044 445.959 12.2994C443.909 12.3944 440.806 12.2465 439.064 11.9701C437.322 11.694 435.779 11.5859 435.635 11.73C435.491 11.874 434.307 12.0443 433.005 12.1083C431.703 12.1724 429.951 12.4168 429.112 12.6514C428.205 12.9052 427.302 12.8423 426.885 12.4962C426.5 12.1762 423.782 11.8569 420.846 11.7867C417.212 11.6999 415.622 11.4694 415.864 11.0648C416.059 10.738 415.797 10.8126 415.282 11.2307C414.637 11.7536 413.644 11.8788 412.099 11.6317C410.624 11.3959 409.973 11.4666 410.202 11.8377C410.593 12.4702 410.52 12.4823 405.518 12.6167C403.544 12.6697 401.37 12.9085 400.687 13.1472C400.004 13.386 399.445 13.3783 399.445 13.1301C399.445 12.8819 398.824 12.6789 398.065 12.6789C397.305 12.6789 396.684 12.8652 396.684 13.0929C396.684 13.3207 396.297 13.507 395.824 13.507C395.35 13.507 395.093 13.2972 395.251 13.0406C395.634 12.4206 389.963 13.3311 389.551 13.9557C388.798 15.099 378.466 16.2577 378.466 15.1989C378.466 14.8757 378.202 14.6111 377.881 14.6111C377.559 14.6111 377.439 14.8425 377.614 15.1251C378.113 15.9332 376.843 16.4307 376.022 15.7488C375.47 15.2914 375.211 15.3194 375.004 15.8585C374.826 16.324 373.917 16.5367 372.456 16.455C371.206 16.3852 370.184 16.56 370.184 16.8436C370.184 17.7566 367.348 17.1571 366.797 16.1277C366.504 15.5802 366.024 15.2807 365.731 15.462C365.438 15.6433 365.324 15.9969 365.479 16.2477C365.635 16.4985 365.398 16.8432 364.954 17.0136C364.51 17.184 363.998 17.0819 363.815 16.7866C363.613 16.4594 362.906 16.5718 362.003 17.0747C360.305 18.021 355.023 19.0264 354.35 18.5316L354.35 18.5313ZM346.445 16.0237C346.445 15.054 346.776 14.9112 347.249 15.6769C347.424 15.9596 347.314 16.347 347.006 16.5376C346.697 16.7284 346.445 16.4976 346.445 16.0237V16.0237ZM348.525 15.07C348.846 14.7492 349.435 14.5953 349.833 14.7281C350.246 14.8659 349.996 15.1162 349.25 15.3114C348.331 15.5515 348.116 15.4797 348.525 15.07ZM538.707 13.6692C538.024 13.5376 537.465 13.2403 537.465 13.0086C537.465 12.3329 539.865 12.7002 540.102 13.4122C540.221 13.7678 540.235 14.025 540.133 13.9836C540.032 13.9421 539.39 13.8008 538.707 13.6692H538.707ZM527.252 12.4026C528.769 11.7504 529.641 11.7504 528.632 12.4026C528.176 12.6969 527.431 12.9242 526.976 12.9074C526.43 12.8874 526.524 12.7154 527.252 12.4026V12.4026ZM530.596 12.4539C530.426 12.1786 530.784 12.0834 531.392 12.2423C532.681 12.5794 532.844 12.9546 531.701 12.9546C531.263 12.9546 530.766 12.7293 530.596 12.4539V12.4539ZM459.523 11.2046C458.654 10.3311 459.049 10.2706 465.872 10.2295C469.874 10.2051 473.701 10.0786 474.378 9.94775C475.055 9.81694 475.738 9.91845 475.895 10.1732C476.053 10.428 476.942 10.5838 477.871 10.5194C480.383 10.3456 480.395 11.1493 477.884 11.3888C476.696 11.5021 475.843 11.4035 475.987 11.1705C476.44 10.4372 475.59 10.7092 474.725 11.5744C473.786 12.5136 471.454 12.6827 470.938 11.8489C470.711 11.4814 470.233 11.4899 469.514 11.8743C468.292 12.5285 467.141 12.0839 467.703 11.1747C467.949 10.7771 467.813 10.7393 467.298 11.0623C466.872 11.33 465.156 11.6811 463.486 11.8424C461.096 12.0733 460.252 11.9375 459.523 11.2045V11.2046ZM503.788 11.8503C503.788 11.5467 503.898 11.2983 504.032 11.2983C504.166 11.2983 504.429 11.5467 504.616 11.8503C504.804 12.154 504.694 12.4024 504.373 12.4024C504.051 12.4024 503.788 12.154 503.788 11.8503ZM481.705 10.7462C481.207 10.4246 481.139 10.2076 481.534 10.2025C481.896 10.1975 482.345 10.4425 482.533 10.7462C482.957 11.4316 482.766 11.4316 481.705 10.7462ZM697.339 10.6709C697.625 10.2087 695.522 9.66501 695.096 10.091C694.502 10.6846 692.048 10.7967 692.048 10.2302C692.048 9.87983 690.477 9.7954 687.77 10.0003C684.45 10.2516 683.058 10.1221 681.559 9.42285C680.496 8.92719 680.045 8.63554 680.557 8.77475C681.069 8.91396 681.565 8.81185 681.661 8.54819C681.756 8.28442 682.207 7.98786 682.663 7.88913C683.118 7.79053 683.673 7.46129 683.896 7.15762C684.12 6.85396 684.306 7.14962 684.311 7.815C684.319 8.95831 684.402 8.98107 685.837 8.23132C687.199 7.51984 687.434 7.53742 688.12 8.40207C688.847 9.31882 688.868 9.31872 688.551 8.40207C688.294 7.65646 688.523 7.43594 689.554 7.43594C690.288 7.43594 691.142 7.87072 691.452 8.40207C691.764 8.93825 692.022 9.06109 692.031 8.67813C692.049 7.95518 693.704 7.682 693.704 8.40207C693.704 8.6298 695.583 8.80177 697.878 8.78424C700.174 8.76664 702.176 8.95298 702.327 9.1983C702.479 9.44356 703.135 9.64422 703.785 9.64422C704.73 9.64422 704.829 9.78227 704.277 10.3343C703.586 11.0253 696.921 11.3508 697.339 10.6732V10.6709ZM706.402 10.6543C706.402 10.4012 706.589 10.1775 706.816 10.1569C707.044 10.1364 708.025 10.0157 708.997 9.88864C711.181 9.60285 711.959 10.55 709.858 10.9369C707.78 11.3195 706.402 11.2068 706.402 10.6543V10.6543ZM666.653 8.81396C666.653 8.51035 665.721 8.26193 664.582 8.26193C663.444 8.26193 662.329 8.51035 662.106 8.81396C661.836 9.18203 661.697 9.18203 661.691 8.81396C661.679 8.12231 658.371 7.9587 658.371 8.64981C658.371 8.92779 658.145 9.01568 657.869 8.84512C657.344 8.52017 652.487 7.99843 647.329 7.71274C645.659 7.62024 644.293 7.48878 644.293 7.42056C644.293 7.05054 637.029 7.04482 636.564 7.41455C635.735 8.07447 630.215 8.53487 630.215 7.94409C630.215 7.66343 629.842 7.43384 629.387 7.43384C628.931 7.43384 628.559 7.67355 628.559 7.96661C628.559 8.29923 624.67 8.40118 618.207 8.2381C612.514 8.09445 607.256 7.97948 606.524 7.98266C605.791 7.98766 604.363 7.75939 603.349 7.47955C602.241 7.1736 601.507 7.17169 601.507 7.47455C601.507 7.97626 599.576 7.89499 599.052 7.37121C598.901 7.22014 596.389 7.18483 593.469 7.29281C589.95 7.42294 587.898 7.27084 587.381 6.84167C586.773 6.33737 586.599 6.36177 586.592 6.9519C586.586 7.43062 586.434 7.49728 586.178 7.13287C585.934 6.78673 582.794 6.52871 578.319 6.48745C574.22 6.44985 561.798 6.2765 550.715 6.10287C539.632 5.92929 525.409 5.75411 519.108 5.71368C512.808 5.67368 507.652 5.48473 507.651 5.29474C507.651 5.10465 506.284 4.94917 504.615 4.94917C502.945 4.94917 501.58 5.1355 501.58 5.36323C501.58 5.59097 501.317 5.77731 500.995 5.77731C500.674 5.77731 500.564 5.52886 500.752 5.2252C500.939 4.92158 500.706 4.67315 500.232 4.67315C499.759 4.6734 499.372 4.42496 499.372 4.12135C499.372 3.81769 499.108 3.56924 498.787 3.56924C498.465 3.56924 498.356 3.81769 498.543 4.12135C498.745 4.44742 498.137 4.66998 497.058 4.66495C495.675 4.65795 495.432 4.52638 496.059 4.12135C496.671 3.72608 496.696 3.58395 496.158 3.5777C495.596 3.5707 495.618 3.37887 496.256 2.74112C496.712 2.28566 497.599 1.91299 498.228 1.91299C498.857 1.91299 499.372 1.6478 499.372 1.32368C499.372 0.974122 499.849 0.885905 500.545 1.10685C501.334 1.35743 501.595 1.2793 501.34 0.868024C501.133 0.531794 501.11 0.256742 501.289 0.256742C501.469 0.256742 501.804 0.767684 502.035 1.39219L502.456 2.52769L503.911 1.38247C504.909 0.597514 505.488 0.43252 505.751 0.85806C506.023 1.29819 506.269 1.26089 506.597 0.729795C506.974 0.121055 510.761 -0.0154248 526.817 0.00132515C537.684 0.0130252 551.046 0.181459 556.512 0.376569C561.978 0.571639 571.046 0.875294 576.663 1.05137C596.947 1.68701 602.172 1.91803 602.627 2.19894C603.643 2.82662 608.091 3.38341 608.765 2.9671C609.18 2.71056 609.664 2.80216 609.911 3.18434C610.231 3.67755 610.478 3.63512 610.884 3.01715C611.183 2.56168 611.431 2.43746 611.436 2.74112C611.442 3.08956 614.857 3.26857 620.692 3.22648C629.915 3.15988 645.673 4.05108 645.674 4.63937C645.674 4.80992 647.6 4.92148 649.952 4.8874C653.985 4.8289 663.273 5.58444 664.92 6.10495C665.528 6.29699 665.539 6.50337 664.98 7.177C664.417 7.85586 664.431 7.96603 665.056 7.76861C665.479 7.63522 666.518 7.37379 667.365 7.18771C668.314 6.97921 668.783 6.59067 668.587 6.17544C668.411 5.80479 668.557 5.89043 668.911 6.36563C669.431 7.0645 670.141 7.15021 672.62 6.81378C674.363 6.57721 676.103 6.62119 676.654 6.91577C677.186 7.20073 678.321 7.46765 679.176 7.509C680.608 7.5782 680.626 7.60399 679.399 7.83517C678.368 8.0294 678.243 8.19781 678.847 8.57965C679.7 9.11993 678.983 9.1876 671.207 9.3002C668.495 9.3393 666.653 9.14283 666.653 8.81402L666.653 8.81396ZM506.197 3.84843C506.023 3.39467 505.658 3.16094 505.387 3.32896C504.607 3.8107 504.81 4.67335 505.703 4.67335C506.196 4.67335 506.39 4.34951 506.197 3.84843V3.84843ZM473.998 5.73565C474.566 4.67398 474.533 4.55342 473.751 4.85328C472.972 5.1524 472.937 5.0315 473.498 3.98218L474.15 2.76378L474.699 3.99464C475.33 5.40679 476.47 5.61212 476.936 4.39732C477.111 3.94185 477.054 3.5692 476.811 3.5692C476.567 3.5692 476.368 3.19351 476.368 2.73428C476.368 2.05548 476.867 1.96552 479.036 2.25332C480.859 2.49511 481.705 2.40982 481.705 1.98414C481.705 1.63795 482.578 1.3609 483.67 1.3609C484.958 1.3609 485.505 1.57002 485.259 1.96806C484.993 2.3997 485.219 2.39605 486.042 1.95537C487.005 1.44028 487.146 1.47763 486.878 2.17631C486.701 2.63877 486.334 3.01718 486.062 3.01718C485.791 3.01718 485.569 3.26562 485.569 3.56923C485.569 4.72006 486.567 4.05492 487.226 2.46507C487.994 0.61092 488.014 0.600728 489.398 1.3414C490.096 1.71504 490.311 2.29843 490.121 3.29658C489.971 4.07905 490.066 4.64687 490.331 4.5583C490.597 4.4698 490.938 4.64009 491.09 4.9369C491.254 5.25604 489.941 5.51469 487.878 5.57011C484.689 5.65571 484.338 5.55011 483.787 4.34047C483.193 3.03618 481.153 2.46421 481.153 3.6018C481.153 3.92343 481.398 4.0347 481.699 3.84921C482.007 3.65882 482.107 3.87022 481.929 4.33383C481.745 4.81411 481.251 5.01655 480.741 4.82075C480.173 4.60302 480.004 4.70615 480.257 5.11552C480.701 5.83413 478.866 6.36473 476.736 6.13363C475.977 6.05133 474.902 6.20474 474.348 6.47461C473.445 6.9143 473.408 6.83758 473.998 5.73568V5.73565ZM489.101 3.66124C489.258 3.40821 489.035 3.20118 488.606 3.20118C488.177 3.20118 487.954 3.40821 488.111 3.66124C488.267 3.91426 488.49 4.1213 488.606 4.1213C488.722 4.1213 488.945 3.91426 489.101 3.66124ZM466.561 5.84028C466.395 5.57114 466.754 5.22154 467.359 5.06329C468.092 4.87164 468.347 4.48194 468.122 3.89639C467.937 3.4128 468.018 3.01713 468.304 3.01713C469.061 3.01713 468.939 4.82055 468.126 5.63296C467.302 6.45698 466.97 6.50102 466.561 5.84028ZM469.947 4.30533C470.102 3.90045 470.3 3.5692 470.387 3.5692C470.474 3.5692 470.672 3.90045 470.828 4.30533C470.983 4.71021 470.785 5.04146 470.387 5.04146C469.99 5.04146 469.791 4.71021 469.947 4.30533ZM472.076 2.75865C472.665 2.31285 473.692 1.94019 474.357 1.93052C475.674 1.91102 476.513 2.74859 475.688 3.2585C475.406 3.43316 475.079 3.29069 474.963 2.9414C474.804 2.46445 474.458 2.46353 473.572 2.93641C471.875 3.84466 470.807 3.71668 472.076 2.75711V2.75865ZM464.74 2.68355C464.923 2.5001 465.4 2.48047 465.798 2.64004C466.238 2.81626 466.108 2.94709 465.464 2.97355C464.882 2.99745 464.556 2.86706 464.74 2.68361V2.68355ZM493.851 2.46499C493.143 2.00766 493.163 1.92857 493.989 1.92134C494.52 1.91634 494.955 2.16132 494.955 2.46499C494.955 3.13833 494.893 3.13833 493.851 2.46499ZM490.886 1.62413C490.622 0.938038 490.764 0.89078 491.655 1.36749C492.935 2.0524 493.056 2.46499 491.977 2.46499C491.554 2.46499 491.063 2.08658 490.886 1.62413V1.62413Z" fill="#97BF0D"/>
</svg>
